<svg width="25" height="24" viewBox="0 0 25 24" fill="none" xmlns="http://www.w3.org/2000/svg">
<path d="M18.6666 2V4M6.66656 2V4" stroke="currentColor" stroke-width="1.5" stroke-linecap="round" stroke-linejoin="round"/>
<path d="M12.6621 13H12.6711M12.6621 17H12.6711M16.6576 13H16.6666M8.66656 13H8.67554M8.66656 17H8.67554" stroke="currentColor" stroke-width="2" stroke-linecap="round" stroke-linejoin="round"/>
<path d="M4.16656 8H21.1666" stroke="currentColor" stroke-width="1.5" stroke-linecap="round" stroke-linejoin="round"/>
<path d="M3.16656 12.2432C3.16656 7.88594 3.16656 5.70728 4.41868 4.35364C5.6708 3 7.68606 3 11.7166 3H13.6166C17.6471 3 19.6624 3 20.9145 4.35364C22.1666 5.70728 22.1666 7.88594 22.1666 12.2432V12.7568C22.1666 17.1141 22.1666 19.2927 20.9145 20.6464C19.6624 22 17.6471 22 13.6166 22H11.7166C7.68606 22 5.6708 22 4.41868 20.6464C3.16656 19.2927 3.16656 17.1141 3.16656 12.7568V12.2432Z" stroke="currentColor" stroke-width="1.5" stroke-linecap="round" stroke-linejoin="round"/>
<path d="M3.66656 8H21.6666" stroke="currentColor" stroke-width="1.5" stroke-linecap="round" stroke-linejoin="round"/>
</svg>
