<svg width="24" height="24" viewBox="0 0 24 24" fill="none" xmlns="http://www.w3.org/2000/svg">
<path d="M11.9999 11V20" stroke="#009FDF" stroke-width="1.5" stroke-linecap="round"/>
<path d="M13.9999 9C13.9999 10.1046 13.1045 11 11.9999 11C10.8953 11 9.99991 10.1046 9.99991 9C9.99991 7.89543 10.8953 7 11.9999 7C13.1045 7 13.9999 7.89543 13.9999 9Z" stroke="#009FDF" stroke-width="1.5"/>
<path d="M16.9587 6C17.6185 6.86961 17.9999 7.89801 17.9999 9C17.9999 10.102 17.6185 11.1304 16.9587 12M7.04108 6C6.38134 6.86961 5.99991 7.89801 5.99991 9C5.99991 10.102 6.38134 11.1304 7.04108 12" stroke="#009FDF" stroke-width="1.5" stroke-linecap="round" stroke-linejoin="round"/>
<path d="M20.3158 4C21.3795 5.43008 21.9999 7.14984 21.9999 9C21.9999 10.8502 21.3795 12.5699 20.3158 14M3.684 4C2.62027 5.43008 1.99991 7.14984 1.99991 9C1.99991 10.8502 2.62027 12.5699 3.684 14" stroke="#009FDF" stroke-width="1.5" stroke-linecap="round" stroke-linejoin="round"/>
</svg>
