<svg width="16" height="17" viewBox="0 0 16 17" fill="none" xmlns="http://www.w3.org/2000/svg">
<path d="M6 10.5C6 8.6144 6 7.6716 6.58579 7.08579C7.1716 6.5 8.1144 6.5 10 6.5H10.6667C12.5523 6.5 13.4951 6.5 14.0809 7.08579C14.6667 7.6716 14.6667 8.6144 14.6667 10.5V11.1667C14.6667 13.0523 14.6667 13.9951 14.0809 14.5809C13.4951 15.1667 12.5523 15.1667 10.6667 15.1667H10C8.1144 15.1667 7.1716 15.1667 6.58579 14.5809C6 13.9951 6 13.0523 6 11.1667V10.5Z" stroke="#009FDF" stroke-linecap="round" stroke-linejoin="round"/>
<path d="M11.3332 6.49998C11.3316 4.52859 11.3018 3.50745 10.728 2.80827C10.6172 2.67324 10.4934 2.54943 10.3584 2.43862C9.62078 1.83331 8.52498 1.83331 6.33331 1.83331C4.14166 1.83331 3.04583 1.83331 2.30827 2.43862C2.17324 2.54943 2.04943 2.67324 1.93862 2.80827C1.33331 3.54583 1.33331 4.64166 1.33331 6.83331C1.33331 9.02498 1.33331 10.1208 1.93862 10.8584C2.04943 10.9934 2.17324 11.1172 2.30827 11.228C3.00745 11.8018 4.02859 11.8316 5.99998 11.8332" stroke="#009FDF" stroke-linecap="round" stroke-linejoin="round"/>
</svg>
