<svg width="16" height="16" viewBox="0 0 16 16" fill="none" xmlns="http://www.w3.org/2000/svg">
<path d="M14.3627 7.36334C14.5654 7.64754 14.6667 7.78968 14.6667 8.00001C14.6667 8.21034 14.5654 8.35248 14.3627 8.63668C13.452 9.91374 11.1262 12.6667 8.00004 12.6667C4.87389 12.6667 2.54811 9.91374 1.6374 8.63668C1.43471 8.35248 1.33337 8.21034 1.33337 8.00001C1.33337 7.78968 1.43471 7.64754 1.6374 7.36334C2.54811 6.0863 4.87389 3.33334 8.00004 3.33334C11.1262 3.33334 13.452 6.0863 14.3627 7.36334Z" stroke="#667085" stroke-width="1.5"/>
<path d="M10 8C10 6.8954 9.1046 6 8 6C6.8954 6 6 6.8954 6 8C6 9.1046 6.8954 10 8 10C9.1046 10 10 9.1046 10 8Z" stroke="#667085" stroke-width="1.5"/>
</svg>
