<svg width="24" height="24" viewBox="0 0 24 24" fill="none" xmlns="http://www.w3.org/2000/svg">
<path d="M10.5 19C15.1944 19 19 15.1944 19 10.5C19 5.80558 15.1944 2 10.5 2C5.80558 2 2 5.80558 2 10.5C2 15.1944 5.80558 19 10.5 19Z" stroke="#009FDF" stroke-width="1.5" stroke-linejoin="round"/>
<path d="M10.4998 10.5H10.5075M14 7L13 8M8 13L7 14M14 14L13 13M8 8L7 7" stroke="#009FDF" stroke-width="1.5" stroke-linecap="round"/>
<path d="M13.5 18.5L19.3225 17.5348C20.7193 17.2917 22 18.3514 22 19.7503C22 20.9928 20.9787 22 19.7189 22H18.7" stroke="#009FDF" stroke-width="1.5" stroke-linecap="round" stroke-linejoin="round"/>
</svg>
