<svg width="25" height="24" viewBox="0 0 25 24" fill="none" xmlns="http://www.w3.org/2000/svg">
<path d="M3.33337 4V20C3.33337 20.9428 3.33337 21.4142 3.62626 21.7071C3.91916 22 4.39056 22 5.33337 22H19.3334C20.2762 22 20.7476 22 21.0405 21.7071C21.3334 21.4142 21.3334 20.9428 21.3334 20V4" stroke="#009FDF" stroke-width="1.5" stroke-linecap="round" stroke-linejoin="round"/>
<path d="M10.8334 8V9.5M10.8334 9.5V11M10.8334 9.5H13.8334M13.8334 8V9.5M13.8334 9.5V11" stroke="#009FDF" stroke-width="1.5" stroke-linecap="round" stroke-linejoin="round"/>
<path d="M14.3334 22.0001V18C14.3334 16.8954 13.438 16 12.3334 16C11.2288 16 10.3334 16.8954 10.3334 18V22.0001" stroke="#009FDF" stroke-width="1.5" stroke-linecap="round" stroke-linejoin="round"/>
<path d="M2.33337 4H8.33337C8.97327 2.82727 10.5231 2 12.3334 2C14.1437 2 15.6935 2.82727 16.3334 4H22.3334" stroke="#009FDF" stroke-width="1.5" stroke-linecap="round" stroke-linejoin="round"/>
<path d="M6.33337 8H7.33337M6.33337 12H7.33337M6.33337 16H7.33337" stroke="#009FDF" stroke-width="1.5" stroke-linecap="round" stroke-linejoin="round"/>
<path d="M17.3334 8H18.3334M17.3334 12H18.3334M17.3334 16H18.3334" stroke="#009FDF" stroke-width="1.5" stroke-linecap="round" stroke-linejoin="round"/>
</svg>
