<svg width="25" height="24" viewBox="0 0 25 24" fill="none" xmlns="http://www.w3.org/2000/svg">
<path d="M14.534 2.778C14.8828 2.68455 15.2467 2.66073 15.6047 2.7079C15.9628 2.75507 16.3081 2.87231 16.6208 3.05292C16.9336 3.23353 17.2077 3.47398 17.4275 3.76054C17.6473 4.04709 17.8086 4.37414 17.902 4.723L20.62 14.865C20.7134 15.2139 20.7373 15.5777 20.6901 15.9358C20.6429 16.2938 20.5257 16.6391 20.3451 16.9519C20.1644 17.2646 19.924 17.5387 19.6374 17.7585C19.3509 17.9784 19.0238 18.1396 18.675 18.233L12.397 19.915C11.6926 20.1038 10.942 20.005 10.3104 19.6405C9.6788 19.2759 9.21786 18.6754 9.02898 17.971L6.30998 7.828C6.21654 7.47908 6.19276 7.11517 6.24 6.75705C6.28723 6.39894 6.40456 6.05364 6.58527 5.74087C6.76598 5.42811 7.00654 5.15401 7.2932 4.93424C7.57987 4.71446 7.90702 4.55332 8.25598 4.46L14.534 2.778ZM6.30098 11.658L8.06298 18.229C8.23626 18.88 8.5825 19.4719 9.06498 19.942L8.62198 19.919C7.89371 19.8808 7.21046 19.5548 6.72251 19.0128C6.23455 18.4709 5.98185 17.7573 6.01998 17.029L6.30098 11.658ZM14.922 4.227L8.64398 5.909C8.4854 5.95148 8.33674 6.02477 8.20649 6.1247C8.07624 6.22463 7.96695 6.34923 7.88487 6.4914C7.80278 6.63357 7.7495 6.79052 7.72807 6.95328C7.70664 7.11604 7.71748 7.28143 7.75998 7.44L10.478 17.582C10.5638 17.902 10.7731 18.1749 11.06 18.3407C11.3469 18.5064 11.6879 18.5515 12.008 18.466L18.287 16.784C18.4456 16.7415 18.5942 16.6682 18.7245 16.5683C18.8547 16.4684 18.964 16.3438 19.0461 16.2016C19.1282 16.0594 19.1815 15.9025 19.2029 15.7397C19.2243 15.577 19.2135 15.4116 19.171 15.253L16.453 5.111C16.3672 4.79096 16.1578 4.51808 15.8709 4.35232C15.5841 4.18656 15.2431 4.14148 14.923 4.227M5.37598 10.18L5.02098 16.976C4.98398 17.675 5.14098 18.339 5.44498 18.916L5.03098 18.756C4.6938 18.6266 4.38541 18.432 4.12342 18.1835C3.86143 17.9349 3.65098 17.6371 3.50407 17.3072C3.35717 16.9772 3.27669 16.6216 3.26724 16.2606C3.25779 15.8995 3.31954 15.5402 3.44898 15.203L5.37598 10.18ZM10.24 7.035C10.3668 7.00099 10.4991 6.9923 10.6294 7.00942C10.7596 7.02654 10.8851 7.06915 10.9989 7.1348C11.1127 7.20045 11.2124 7.28786 11.2923 7.39205C11.3723 7.49623 11.431 7.61515 11.465 7.742C11.499 7.86886 11.5077 8.00117 11.4906 8.13139C11.4734 8.26161 11.4308 8.38718 11.3652 8.50093C11.2995 8.61468 11.2121 8.71439 11.1079 8.79436C11.0037 8.87432 10.8848 8.93299 10.758 8.967C10.5018 9.03569 10.2288 8.9998 9.99905 8.86721C9.76932 8.73462 9.60167 8.5162 9.53298 8.26C9.46429 8.0038 9.50018 7.73081 9.63277 7.50108C9.76536 7.27135 9.98378 7.10369 10.24 7.035Z" fill="#AAAAAA"/>
</svg>
