<svg width="24" height="24" viewBox="0 0 24 24" fill="none" xmlns="http://www.w3.org/2000/svg">
<path d="M17.402 4.723L20.12 14.865C20.2134 15.2139 20.2373 15.5777 20.1901 15.9358C20.1429 16.2938 20.0257 16.6391 19.8451 16.9519C19.6644 17.2646 19.424 17.5387 19.1374 17.7585C18.8509 17.9784 18.5238 18.1396 18.175 18.233L11.897 19.915C11.1926 20.1038 10.442 20.005 9.81041 19.6405C9.1788 19.2759 8.71786 18.6754 8.52898 17.971L5.80998 7.828C5.71654 7.47908 5.69276 7.11517 5.74 6.75705C5.78723 6.39894 5.90456 6.05364 6.08527 5.74087C6.26598 5.42811 6.50654 5.15401 6.7932 4.93424C7.07987 4.71446 7.40702 4.55332 7.75598 4.46L14.034 2.778C14.3828 2.68455 14.7467 2.66073 15.1047 2.7079C15.4628 2.75507 15.8081 2.87231 16.1208 3.05292C16.4336 3.23353 16.7077 3.47398 16.9275 3.76054C17.1473 4.04709 17.3086 4.37414 17.402 4.723ZM10.964 7.742C10.9305 7.61461 10.8722 7.49508 10.7924 7.39028C10.7127 7.28547 10.613 7.19746 10.4991 7.1313C10.3852 7.06514 10.2593 7.02214 10.1288 7.00475C9.99822 6.98736 9.86551 6.99594 9.73827 7.02999C9.61103 7.06404 9.49177 7.12288 9.38734 7.20316C9.28292 7.28343 9.19537 7.38353 9.12975 7.49773C9.06412 7.61193 9.0217 7.73797 9.00492 7.86862C8.98814 7.99926 8.99733 8.13193 9.03198 8.259C9.10152 8.5141 9.26926 8.73128 9.49851 8.86302C9.72776 8.99477 9.99985 9.03036 10.2553 8.96201C10.5107 8.89366 10.7287 8.72693 10.8615 8.4983C10.9943 8.26967 11.0311 7.99774 10.964 7.742ZM5.80098 11.659L7.56298 18.229C7.73626 18.88 8.0825 19.4719 8.56498 19.942L8.12198 19.919C7.39371 19.8808 6.71046 19.5548 6.22251 19.0128C5.73455 18.4709 5.48185 17.7573 5.51998 17.029L5.80098 11.659ZM4.87598 10.18L4.52098 16.976C4.48398 17.675 4.64098 18.339 4.94498 18.916L4.53098 18.756C4.1938 18.6266 3.88541 18.432 3.62342 18.1835C3.36143 17.9349 3.15098 17.6371 3.00407 17.3072C2.85717 16.9772 2.77669 16.6216 2.76724 16.2606C2.75779 15.8995 2.81954 15.5402 2.94898 15.203L4.87598 10.18Z" fill="#009FDF"/>
</svg>
