<svg width="114" height="124" viewBox="0 0 114 124" fill="none" xmlns="http://www.w3.org/2000/svg">
<path d="M2.17341 93.2272C0.0909357 97.4598 -2.20997 101.582 -4.72023 105.578C-6.30654 106.96 -8.01219 108.199 -9.81716 109.281C-11.1071 109.941 -12.5481 110.23 -13.9817 110.127C-13.6376 107.933 -12.7939 105.846 -11.5125 104.026C-11.3856 103.999 -11.2155 103.971 -10.9952 103.941C-10.8081 103.917 -10.6081 103.894 -10.3929 103.869L-10.3799 103.867C-10.1633 103.842 -9.93277 103.816 -9.70506 103.785C-9.26166 103.726 -8.76768 103.645 -8.34275 103.505C-7.97918 103.385 -7.35767 103.128 -7.0734 102.511L-7.0729 102.509C-6.97669 102.3 -6.67982 101.481 -6.28688 100.397L-6.26919 100.348C-6.24452 100.28 -6.21939 100.211 -6.19381 100.14C-5.82486 99.1224 -5.36213 97.8458 -4.85062 96.4588C-2.45427 95.5022 -0.110511 94.4235 2.17341 93.2272Z" stroke="#009FDF" stroke-opacity="0.1" stroke-width="2"/>
<mask id="path-2-inside-1_3_487" fill="white">
<path d="M109.048 5.96738C109.971 4.06953 110.658 2.06537 111.093 0C108.669 0.0726066 106.264 0.445269 103.932 1.1095C103.017 1.25943 66.9703 -6.68705 45.3259 30.3226C55.7013 28.3495 59.4197 29.0032 55.7553 29.9748C53.9981 30.4396 32.6475 35.9721 25.6066 37.8283C9.33577 42.1254 -6.16138 50.3838 -6.16138 68.1869C-6.16138 76.5082 -3.8914 79.8398 -8.6593 83.6811C-11.7659 86.182 -21.5776 88.437 -22.0424 89.7534C-22.5072 91.0698 -30.0578 111.152 -30.5256 112.16C-30.9934 113.167 -34.184 112.783 -35.3475 113.251C-36.511 113.719 -39.7616 122.211 -38.9789 122.829C-36.5799 123.295 -34.0939 122.934 -31.926 121.806C-29.6605 120.448 -27.5551 118.838 -25.6498 117.008C-23.9466 115.383 -19.6315 103.832 -15.5833 98.3806C-13.3147 95.7077 -10.1366 93.9696 -6.66218 93.5017C11.171 88.6109 23.0637 75.4737 24.647 62.8343C25.1088 59.1369 25.9365 56.4291 26.1644 60.8941C26.3117 63.566 26.1739 66.2459 25.7535 68.8886C31.367 67.1583 43.1459 67.4492 52.4208 65.629C57.7401 64.8379 62.8867 63.1508 67.6421 60.6392C77.6276 59.5687 77.3278 59.5867 74.9828 63.2961C73.4415 65.725 70.5148 70.127 69.8251 71.5064C68.8565 73.4436 69.6482 73.3926 69.5612 74.1752C69.4682 75.0329 67.8699 76.7211 66.5805 75.9025C66.4372 75.796 66.2736 75.72 66.0998 75.6792C65.926 75.6385 65.7456 75.6338 65.5699 75.6656C64.3553 75.8139 63.2192 76.3442 62.3254 77.1799C61.2578 79.4379 63.0001 85.7382 64.0736 85.2314C65.552 84.5417 69.4892 82.3167 71.8702 80.7963C72.8567 80.1666 83.8289 59.8296 83.676 58.1264C83.4991 56.2582 81.9427 52.7287 79.013 52.3389C74.8598 51.8051 62.3404 50.3838 62.3404 50.1379C62.3404 49.4662 70.6797 49.5381 79.1989 50.3568C87.3973 40.5091 89.2115 24.919 93.2927 24.4842C94.939 24.2983 99.0802 28.7663 103.377 33.6662C103.551 34.7813 103.832 35.8769 104.217 36.9377C105.658 37.8795 107.33 38.4075 109.051 38.464C109.986 38.3201 113.66 35.2495 113.804 34.098C113.906 33.3513 109.057 5.95535 109.057 5.95535"/>
</mask>
<path d="M111.093 0L113.05 0.411946L113.573 -2.07521L111.033 -1.9991L111.093 0ZM103.932 1.1095L104.256 3.08315L104.369 3.06453L104.48 3.03299L103.932 1.1095ZM45.3259 30.3226L43.5995 29.3129L41.3794 33.109L45.6995 32.2874L45.3259 30.3226ZM55.7553 29.9748L56.2667 31.9083L56.2679 31.908L55.7553 29.9748ZM25.6066 37.8283L25.0967 35.8944L25.0959 35.8946L25.6066 37.8283ZM-8.6593 83.6811L-7.40515 85.239L-7.40454 85.2385L-8.6593 83.6811ZM-38.9789 122.829L-40.218 124.399L-39.8369 124.7L-39.3602 124.792L-38.9789 122.829ZM-31.926 121.806L-31.0029 123.58L-30.9493 123.553L-30.8975 123.521L-31.926 121.806ZM-25.6498 117.008L-27.0305 115.561L-27.0352 115.566L-25.6498 117.008ZM-15.5833 98.3806L-17.1081 97.0864L-17.1502 97.136L-17.189 97.1882L-15.5833 98.3806ZM-6.66218 93.5017L-6.39526 95.4838L-6.26244 95.466L-6.1332 95.4305L-6.66218 93.5017ZM24.647 62.8343L26.6315 63.0828L26.6316 63.0821L24.647 62.8343ZM26.1644 60.8941L24.1669 60.9961L24.1674 61.0042L26.1644 60.8941ZM25.7535 68.8886L23.7783 68.5744L23.2738 71.7457L26.3426 70.7999L25.7535 68.8886ZM52.4208 65.629L52.1265 63.6508L52.0809 63.6576L52.0356 63.6665L52.4208 65.629ZM67.6421 60.6392L67.4289 58.6506L67.0473 58.6915L66.708 58.8707L67.6421 60.6392ZM74.9828 63.2961L76.6715 64.3677L76.6733 64.3648L74.9828 63.2961ZM69.8251 71.5064L68.0362 70.612L69.8251 71.5064ZM69.5612 74.1752L67.5734 73.9544L67.5729 73.9597L69.5612 74.1752ZM66.5805 75.9025L65.387 77.5074L65.4462 77.5514L65.5085 77.591L66.5805 75.9025ZM65.5699 75.6656L65.8124 77.6509L65.8694 77.6439L65.9259 77.6337L65.5699 75.6656ZM62.3254 77.1799L60.9594 75.7191L60.6805 75.9799L60.5173 76.3251L62.3254 77.1799ZM64.0736 85.2314L63.228 83.4189L63.2198 83.4228L64.0736 85.2314ZM71.8702 80.7963L70.7941 79.1105L70.7938 79.1107L71.8702 80.7963ZM83.676 58.1264L85.668 57.9475L85.6671 57.9378L83.676 58.1264ZM79.013 52.3389L79.2768 50.3563L79.268 50.3552L79.013 52.3389ZM79.1989 50.3568L79.0076 52.3476L80.0597 52.4487L80.736 51.6364L79.1989 50.3568ZM93.2927 24.4842L93.5046 26.473L93.5172 26.4715L93.2927 24.4842ZM103.377 33.6662L105.354 33.3589L105.264 32.7845L104.881 32.3475L103.377 33.6662ZM104.217 36.9377L102.337 37.6201L102.564 38.247L103.123 38.6119L104.217 36.9377ZM109.051 38.464L108.985 40.4629L109.171 40.469L109.355 40.4408L109.051 38.464ZM113.804 34.098L111.822 33.8274L111.821 33.8386L111.819 33.8499L113.804 34.098ZM110.846 6.8425C111.841 4.79732 112.581 2.63761 113.05 0.411946L109.136 -0.411946C108.735 1.49314 108.101 3.34173 107.249 5.09227L110.846 6.8425ZM111.033 -1.9991C108.444 -1.92155 105.875 -1.52349 103.384 -0.813997L104.48 3.03299C106.653 2.41403 108.894 2.06676 111.153 1.9991L111.033 -1.9991ZM103.608 -0.86416C103.736 -0.884998 103.833 -0.887486 103.868 -0.888114C103.912 -0.888917 103.943 -0.887667 103.954 -0.887177C103.974 -0.886242 103.975 -0.885503 103.943 -0.888746C103.879 -0.895086 103.777 -0.907413 103.615 -0.928111C103.307 -0.967516 102.844 -1.02961 102.272 -1.0966C101.119 -1.23161 99.4971 -1.39046 97.5084 -1.46575C93.535 -1.61619 88.0879 -1.43357 81.9642 -0.057697C69.6648 2.70573 54.7378 10.2677 43.5995 29.3129L47.0523 31.3323C57.5585 13.3679 71.4772 6.39825 82.8411 3.84501C88.549 2.56255 93.638 2.39058 97.357 2.53138C99.2145 2.60171 100.728 2.74994 101.806 2.87624C102.35 2.9399 102.775 2.99702 103.107 3.03947C103.265 3.0597 103.42 3.07897 103.547 3.09165C103.61 3.09791 103.69 3.10502 103.774 3.10877C103.814 3.11058 104.018 3.12203 104.256 3.08315L103.608 -0.86416ZM45.6995 32.2874C50.8442 31.309 54.2048 31.0103 55.7623 31.044C55.9472 31.048 56.091 31.0565 56.1978 31.0666C56.3096 31.0771 56.3548 31.0871 56.3518 31.0864C56.3488 31.0858 56.3169 31.0784 56.2653 31.0597C56.2179 31.0426 56.1168 31.0026 55.9926 30.9252C55.7955 30.8025 55.1039 30.2889 55.1314 29.2868C55.1547 28.441 55.6973 27.995 55.7589 27.9434C55.8915 27.8324 55.9815 27.7976 55.9374 27.8182C55.8667 27.8513 55.6561 27.932 55.2427 28.0416L56.2679 31.908C56.7706 31.7747 57.2453 31.6224 57.6322 31.4415C57.8168 31.3551 58.0786 31.2181 58.3263 31.0107C58.5032 30.8626 59.1043 30.3261 59.1299 29.3967C59.1597 28.3111 58.4141 27.721 58.1072 27.5299C57.7768 27.3241 57.4445 27.2335 57.251 27.1888C56.8298 27.0916 56.3363 27.0554 55.8487 27.0449C53.8693 27.0021 50.183 27.3631 44.9522 28.3578L45.6995 32.2874ZM55.2439 28.0413C53.45 28.5158 32.1943 34.0233 25.0967 35.8944L26.1164 39.7622C33.1007 37.921 54.5462 32.3634 56.2667 31.9083L55.2439 28.0413ZM25.0959 35.8946C16.8469 38.0732 8.58597 41.3037 2.35564 46.3941C-3.94907 51.5452 -8.16138 58.602 -8.16138 68.1869H-4.16138C-4.16138 59.9687 -0.625114 53.9947 4.88645 49.4916C10.4724 44.9278 18.0955 41.8806 26.1173 39.762L25.0959 35.8946ZM-8.16138 68.1869C-8.16138 70.3587 -8.01293 72.1986 -7.8732 73.7569C-7.72982 75.3559 -7.60954 76.5419 -7.62223 77.5898C-7.63439 78.5942 -7.77206 79.3246 -8.0705 79.9653C-8.36813 80.6042 -8.89572 81.3032 -9.91406 82.1237L-7.40454 85.2385C-6.03893 84.1383 -5.0623 82.9804 -4.44458 81.6543C-3.82768 80.3299 -3.63885 78.987 -3.62252 77.6382C-3.60672 76.3329 -3.75594 74.8857 -3.88918 73.3996C-4.02608 71.8729 -4.16138 70.1758 -4.16138 68.1869H-8.16138ZM-9.91345 82.1232C-10.4633 82.5658 -11.4431 83.088 -12.7825 83.6611C-14.0842 84.2181 -15.5634 84.7571 -17.0173 85.2791C-18.438 85.7891 -19.8717 86.2956 -20.9687 86.7579C-21.5142 86.9877 -22.0523 87.2376 -22.4951 87.505C-22.7163 87.6386 -22.9667 87.8079 -23.1967 88.0174C-23.4047 88.207 -23.7417 88.5591 -23.9283 89.0875L-20.1565 90.4193C-20.285 90.7831 -20.4909 90.9634 -20.5026 90.974C-20.5362 91.0047 -20.5251 90.9881 -20.4275 90.9292C-20.2326 90.8115 -19.9036 90.6497 -19.4154 90.444C-18.445 90.035 -17.1444 89.5746 -15.6657 89.0438C-14.2203 88.5249 -12.635 87.9489 -11.2088 87.3386C-9.82025 86.7444 -8.40863 86.0468 -7.40515 85.239L-9.91345 82.1232ZM-23.9283 89.0875C-24.1514 89.7195 -26.144 95.0397 -28.1541 100.366C-29.1558 103.021 -30.157 105.664 -30.9365 107.705C-31.3265 108.726 -31.6599 109.594 -31.9098 110.236C-32.0349 110.558 -32.1376 110.819 -32.2153 111.013C-32.2542 111.111 -32.2853 111.187 -32.309 111.244C-32.3357 111.309 -32.3438 111.326 -32.3396 111.317L-28.7116 113.002C-28.4365 112.409 -26.3884 107.016 -24.4117 101.778C-22.4133 96.4828 -20.3982 91.1037 -20.1565 90.4193L-23.9283 89.0875ZM-32.3396 111.317C-32.0714 110.739 -31.6038 110.69 -31.8787 110.771C-32.0572 110.824 -32.3662 110.873 -32.8516 110.915C-33.1678 110.943 -33.966 110.996 -34.3619 111.034C-34.8285 111.079 -35.5075 111.16 -36.0936 111.395L-34.6014 115.107C-34.6058 115.108 -34.4496 115.061 -33.9761 115.015C-33.4319 114.963 -33.1851 114.96 -32.4997 114.9C-31.9836 114.854 -31.3345 114.781 -30.7469 114.608C-30.2555 114.463 -29.2138 114.083 -28.7116 113.002L-32.3396 111.317ZM-36.0936 111.395C-36.5333 111.572 -36.8406 111.851 -37.007 112.019C-37.1966 112.21 -37.3606 112.418 -37.4972 112.609C-37.7711 112.993 -38.0389 113.455 -38.2878 113.931C-38.7907 114.892 -39.313 116.093 -39.762 117.272C-40.2099 118.448 -40.6106 119.669 -40.8505 120.672C-40.9676 121.163 -41.0662 121.681 -41.0922 122.148C-41.1049 122.376 -41.1063 122.684 -41.0424 123.01C-40.9884 123.285 -40.8219 123.922 -40.218 124.399L-37.7398 121.259C-37.2337 121.658 -37.1336 122.157 -37.1174 122.239C-37.0912 122.372 -37.1019 122.434 -37.0984 122.37C-37.0919 122.253 -37.0558 122.003 -36.9601 121.603C-36.7743 120.825 -36.4364 119.778 -36.024 118.696C-35.6128 117.616 -35.1532 116.568 -34.7438 115.785C-34.5367 115.39 -34.3657 115.107 -34.2422 114.934C-34.1801 114.847 -34.1557 114.824 -34.1702 114.839C-34.1791 114.848 -34.2131 114.881 -34.2722 114.925C-34.3285 114.967 -34.4391 115.041 -34.6014 115.107L-36.0936 111.395ZM-39.3602 124.792C-36.5175 125.344 -33.5717 124.917 -31.0029 123.58L-32.8492 120.032C-34.6161 120.951 -36.6423 121.245 -38.5976 120.865L-39.3602 124.792ZM-30.8975 123.521C-28.5031 122.086 -26.2781 120.385 -24.2644 118.451L-27.0352 115.566C-28.8322 117.292 -30.8178 118.81 -32.9546 120.091L-30.8975 123.521ZM-24.2691 118.455C-23.8466 118.052 -23.4774 117.491 -23.1788 116.993C-22.8542 116.451 -22.5054 115.797 -22.1434 115.082C-21.4216 113.657 -20.5779 111.852 -19.6904 109.99C-17.8733 106.177 -15.864 102.113 -13.9776 99.5729L-17.189 97.1882C-19.3508 100.099 -21.5231 104.537 -23.3014 108.269C-24.2116 110.179 -25.019 111.907 -25.7119 113.275C-26.0571 113.957 -26.3566 114.514 -26.6098 114.937C-26.7359 115.147 -26.8403 115.307 -26.9236 115.423C-27.0129 115.547 -27.0482 115.578 -27.0305 115.561L-24.2691 118.455ZM-14.0584 99.6747C-12.1098 97.3787 -9.3798 95.8858 -6.39526 95.4838L-6.9291 91.5196C-10.8935 92.0535 -14.5197 94.0366 -17.1081 97.0864L-14.0584 99.6747ZM-6.1332 95.4305C12.271 90.3831 24.9231 76.7207 26.6315 63.0828L22.6625 62.5857C21.2043 74.2266 10.0709 86.8387 -7.19116 91.573L-6.1332 95.4305ZM26.6316 63.0821C26.7422 62.196 26.8726 61.3884 27.0051 60.7498C27.0715 60.43 27.1349 60.1694 27.1919 59.9715C27.2545 59.754 27.2891 59.6842 27.279 59.7042C27.2767 59.7087 27.2188 59.8284 27.0848 59.9765C26.9793 60.0932 26.5776 60.5053 25.8717 60.564C25.0529 60.6321 24.5133 60.1845 24.294 59.9318C24.0967 59.7045 24.0262 59.5035 24.02 59.4868C23.9993 59.4307 24.0296 59.4983 24.0696 59.8037C24.1057 60.0792 24.14 60.4686 24.167 60.9961L28.1618 60.7922C28.1067 59.714 28.0106 58.7458 27.7721 58.1004C27.7075 57.9257 27.5757 57.6105 27.3149 57.3099C27.032 56.984 26.4265 56.5041 25.5401 56.5778C24.7664 56.6422 24.2951 57.0979 24.1186 57.293C23.9136 57.5195 23.7833 57.7526 23.7078 57.9024C23.429 58.4549 23.2335 59.2386 23.0886 59.937C22.9289 60.7064 22.7826 61.6238 22.6624 62.5864L26.6316 63.0821ZM24.1674 61.0042C24.3069 63.5342 24.1764 66.0719 23.7783 68.5744L27.7287 69.2028C28.1714 66.4199 28.3165 63.5977 28.1613 60.784L24.1674 61.0042ZM26.3426 70.7999C28.8861 70.0159 32.9699 69.6648 37.8681 69.2866C42.6374 68.9184 48.0296 68.529 52.8059 67.5916L52.0356 63.6665C47.537 64.5493 42.4024 64.9246 37.5601 65.2985C32.8469 65.6624 28.2344 66.0311 25.1644 66.9773L26.3426 70.7999ZM52.715 67.6073C58.2579 66.7829 63.6209 65.0248 68.5761 62.4077L66.708 58.8707C62.1526 61.2767 57.2222 62.8929 52.1265 63.6508L52.715 67.6073ZM67.8552 62.6278C70.371 62.3581 72.1763 62.1641 73.4669 62.0765C74.111 62.0328 74.5755 62.0195 74.906 62.0303C75.2715 62.0422 75.3209 62.0808 75.2261 62.0448C75.065 61.9836 74.5655 61.7138 74.3908 61.0572C74.2639 60.5803 74.4291 60.2803 74.3714 60.4252C74.2585 60.7085 73.9537 61.1811 73.2923 62.2274L76.6733 64.3648C77.1844 63.5564 77.7965 62.6357 78.0873 61.9058C78.2314 61.5441 78.4701 60.8326 78.2563 60.0289C77.9948 59.0456 77.2478 58.534 76.6467 58.3056C76.1118 58.1024 75.5285 58.0485 75.0364 58.0324C74.5094 58.0153 73.8914 58.0385 73.1961 58.0857C71.8077 58.1799 69.9059 58.3851 67.4289 58.6506L67.8552 62.6278ZM73.2941 62.2245C72.5212 63.4425 71.4323 65.1063 70.4008 66.7155C69.4153 68.2531 68.4402 69.8041 68.0362 70.612L71.6139 72.4009C71.8997 71.8294 72.7328 70.4897 73.7684 68.8741C74.758 67.3303 75.9031 65.5786 76.6715 64.3677L73.2941 62.2245ZM68.0362 70.612C67.4811 71.7222 67.2043 72.6884 67.402 73.669C67.4694 74.0035 67.6517 74.4669 67.6127 74.3539C67.597 74.3086 67.5525 74.1432 67.5734 73.9544L71.549 74.3961C71.6134 73.8159 71.5025 73.3635 71.3932 73.0471C71.3706 72.9817 71.3485 72.9235 71.335 72.8882C71.3187 72.8452 71.3134 72.8315 71.3078 72.816C71.3002 72.7951 71.3124 72.8253 71.3231 72.8785C71.3889 73.2047 71.2004 73.2278 71.6139 72.4009L68.0362 70.612ZM67.5729 73.9597C67.5814 73.8804 67.5956 73.8228 67.6052 73.7898C67.615 73.7559 67.6232 73.7363 67.6255 73.7311C67.629 73.723 67.6203 73.7443 67.5899 73.7885C67.5607 73.8309 67.5207 73.881 67.4716 73.9324C67.4226 73.9836 67.3718 74.0285 67.3237 74.0643C67.2752 74.1005 67.2386 74.1208 67.2183 74.1303C67.1979 74.1398 67.2058 74.133 67.2419 74.1269C67.2806 74.1203 67.3483 74.1153 67.4338 74.1309C67.5224 74.1471 67.5982 74.1796 67.6525 74.214L65.5085 77.591C67.1764 78.6498 68.8487 77.9171 69.7153 77.2706C70.1839 76.9211 70.5834 76.4944 70.8853 76.0556C71.1608 75.6552 71.476 75.0691 71.5496 74.3908L67.5729 73.9597ZM67.774 74.2976C67.4111 74.0277 66.9966 73.8352 66.5563 73.732L65.6433 77.6264C65.5507 77.6047 65.4634 77.5642 65.387 77.5074L67.774 74.2976ZM66.5563 73.732C66.1158 73.6287 65.659 73.6171 65.214 73.6975L65.9259 77.6337C65.8323 77.6506 65.7361 77.6482 65.6433 77.6264L66.5563 73.732ZM65.3275 73.6804C63.6923 73.88 62.1627 74.5939 60.9594 75.7191L63.6914 78.6408C64.2756 78.0945 65.0183 77.7478 65.8124 77.6509L65.3275 73.6804ZM60.5173 76.3251C60.0446 77.3249 59.965 78.5285 59.9983 79.5284C60.0337 80.5894 60.2089 81.7104 60.4532 82.7151C60.6934 83.7025 61.0278 84.6913 61.4351 85.4503C61.627 85.808 61.9171 86.2723 62.3386 86.6366C62.7648 87.0051 63.7601 87.591 64.9274 87.04L63.2198 83.4228C64.1187 82.9985 64.8248 83.4984 64.9544 83.6105C65.0793 83.7185 65.0655 83.756 64.9598 83.5591C64.7718 83.2087 64.5361 82.5764 64.34 81.7698C64.148 80.9805 64.0207 80.1348 63.9961 79.3952C63.9694 78.5946 64.0724 78.1639 64.1335 78.0347L60.5173 76.3251ZM64.9192 87.0439C66.5072 86.303 70.526 84.0276 72.9465 82.482L70.7938 79.1107C68.4524 80.6058 64.5967 82.7804 63.2281 83.4189L64.9192 87.0439ZM72.9462 82.4822C73.2343 82.2983 73.432 82.0717 73.4988 81.995C73.6005 81.8784 73.6966 81.7533 73.7814 81.6372C73.953 81.4026 74.1478 81.1097 74.3545 80.7847C74.7715 80.1291 75.2971 79.2476 75.8854 78.2266C77.0652 76.1792 78.5361 73.5032 79.9678 70.8C81.3986 68.0985 82.8016 65.3485 83.8416 63.1556C84.3599 62.0628 84.8005 61.0825 85.1107 60.3046C85.2648 59.9185 85.3998 59.5498 85.4964 59.2251C85.5633 59.0002 85.7159 58.481 85.668 57.9475L81.684 58.3052C81.6552 57.9846 81.74 57.8239 81.6625 58.0844C81.6147 58.245 81.5287 58.4885 81.3954 58.8227C81.131 59.4855 80.7318 60.3783 80.2275 61.4415C79.2225 63.5605 77.8494 66.2534 76.433 68.9278C75.0174 71.6005 73.5699 74.2333 72.4196 76.2295C71.843 77.2302 71.3507 78.0542 70.9794 78.638C70.792 78.9326 70.6501 79.1428 70.5526 79.2762C70.5029 79.3441 70.4814 79.3691 70.4837 79.3665C70.4852 79.3648 70.5054 79.3415 70.5418 79.3067C70.5702 79.2795 70.6575 79.1977 70.7941 79.1105L72.9462 82.4822ZM85.6671 57.9378C85.5461 56.6604 84.9937 54.9962 84.0402 53.5679C83.0845 52.136 81.5229 50.6552 79.2768 50.3564L78.7492 54.3214C79.4328 54.4124 80.1143 54.8912 80.7133 55.7886C81.3147 56.6895 81.6289 57.7242 81.6849 58.3149L85.6671 57.9378ZM79.268 50.3552C77.1924 50.0884 72.9843 49.5947 69.3655 49.1457C67.5424 48.9194 65.8628 48.7039 64.6431 48.5304C64.0292 48.4431 63.5545 48.3696 63.2427 48.3131C63.1666 48.2994 63.1058 48.2876 63.0589 48.2779C63.0357 48.2731 63.0177 48.2691 63.0043 48.2661C62.9977 48.2646 62.9927 48.2634 62.9891 48.2626C62.9856 48.2617 62.984 48.2613 62.9842 48.2613C62.9843 48.2614 62.9869 48.262 62.9918 48.2634C62.9965 48.2648 63.0048 48.2671 63.0159 48.2706C63.0335 48.2761 63.0813 48.2913 63.1453 48.318C63.1879 48.3357 63.3474 48.4024 63.5294 48.5354C63.5793 48.5719 64.3404 49.0933 64.3404 50.1379H60.3404C60.3404 51.1902 61.1076 51.7198 61.1696 51.7651C61.3636 51.9069 61.5411 51.983 61.6076 52.0106C61.7639 52.0757 61.9084 52.1147 61.9798 52.1332C62.1472 52.1766 62.3433 52.2153 62.5302 52.2492C62.9193 52.3196 63.4551 52.4017 64.0798 52.4905C65.3373 52.6694 67.0471 52.8886 68.873 53.1152C72.5522 53.5718 76.6805 54.0556 78.7581 54.3226L79.268 50.3552ZM64.3404 50.1379C64.3404 51.2405 63.4973 51.7177 63.43 51.7562C63.2544 51.8568 63.138 51.8766 63.1971 51.862C63.2821 51.8409 63.5124 51.8019 63.9397 51.7669C64.7632 51.6995 66.0001 51.6704 67.5518 51.6883C70.6389 51.7239 74.797 51.943 79.0076 52.3476L79.3902 48.3659C75.0816 47.9519 70.8105 47.7257 67.598 47.6886C66 47.6701 64.6197 47.6978 63.6133 47.7803C63.1257 47.8202 62.6379 47.8794 62.2336 47.9797C62.048 48.0258 61.7441 48.1122 61.4422 48.2851C61.2486 48.396 60.3404 48.9513 60.3404 50.1379H64.3404ZM80.736 51.6364C85.0782 46.4206 87.6832 39.7519 89.6571 34.6071C90.6718 31.9622 91.4897 29.7985 92.296 28.2483C92.6971 27.4773 93.0361 26.9779 93.3115 26.6839C93.5847 26.3921 93.647 26.4578 93.5046 26.4729L93.0809 22.4954C91.9182 22.6193 91.031 23.2672 90.3918 23.9497C89.7548 24.63 89.2185 25.4969 88.7474 26.4024C87.8096 28.2054 86.8962 30.6363 85.9225 33.1742C83.9194 38.3951 81.518 44.4453 77.6619 49.0771L80.736 51.6364ZM93.5172 26.4715C93.2565 26.501 93.1435 26.4258 93.2667 26.4761C93.3692 26.5179 93.5542 26.614 93.8304 26.8028C94.3832 27.1804 95.0973 27.7869 95.9562 28.6111C97.6651 30.2508 99.7235 32.5331 101.874 34.9849L104.881 32.3475C102.734 29.8993 100.573 27.4977 98.7256 25.7249C97.8064 24.8428 96.9079 24.0609 96.0869 23.5C95.6763 23.2195 95.2341 22.9587 94.7783 22.7727C94.3431 22.595 93.7405 22.4209 93.0683 22.4968L93.5172 26.4715ZM101.401 33.9734C101.594 35.2164 101.908 36.4377 102.337 37.6201L106.097 36.2553C105.756 35.3161 105.507 34.3461 105.354 33.3589L101.401 33.9734ZM103.123 38.6119C104.871 39.754 106.898 40.3943 108.985 40.4629L109.116 36.4651C107.762 36.4206 106.446 36.0049 105.311 35.2635L103.123 38.6119ZM109.355 40.4408C109.813 40.3702 110.215 40.1751 110.448 40.0527C110.728 39.9057 111.017 39.7249 111.295 39.5354C111.853 39.1544 112.47 38.6677 113.048 38.1583C113.622 37.6517 114.201 37.0833 114.664 36.5311C114.895 36.2561 115.125 35.9519 115.314 35.6352C115.482 35.3533 115.719 34.8969 115.788 34.346L111.819 33.8499C111.852 33.5869 111.943 33.4784 111.879 33.5853C111.836 33.6575 111.748 33.7832 111.6 33.9603C111.304 34.3122 110.88 34.7364 110.401 35.1593C109.925 35.5795 109.439 35.9594 109.041 36.2307C108.841 36.3672 108.688 36.4589 108.587 36.5119C108.44 36.5895 108.522 36.5218 108.747 36.4873L109.355 40.4408ZM115.785 34.3685C115.824 34.0864 115.794 33.8076 115.792 33.7844C115.783 33.6726 115.768 33.5448 115.752 33.4132C115.719 33.1463 115.669 32.7941 115.607 32.3783C115.482 31.543 115.299 30.4001 115.078 29.0607C114.637 26.3793 114.039 22.8786 113.439 19.4061C112.839 15.9326 112.236 12.4828 111.783 9.90177C111.556 8.61116 111.367 7.53757 111.234 6.78657C111.168 6.41107 111.116 6.1162 111.081 5.91518C111.063 5.81466 111.049 5.73761 111.04 5.68566C111.035 5.65968 111.032 5.63998 111.03 5.62677C111.029 5.62016 111.028 5.61518 111.027 5.61184C111.027 5.61017 111.027 5.60891 111.026 5.60806C111.026 5.60764 111.026 5.60732 111.026 5.60711C111.026 5.60689 111.026 5.60678 109.057 5.95535C107.087 6.30392 107.087 6.30401 107.087 6.30421C107.087 6.30442 107.087 6.30473 107.088 6.30514C107.088 6.30596 107.088 6.3072 107.088 6.30884C107.089 6.31214 107.09 6.31708 107.091 6.32365C107.093 6.33677 107.097 6.35638 107.101 6.38227C107.11 6.43403 107.124 6.5109 107.142 6.61123C107.177 6.81187 107.229 7.10632 107.295 7.48138C107.428 8.23151 107.617 9.30406 107.843 10.5935C108.296 13.1725 108.898 16.6184 109.498 20.0872C110.097 23.557 110.693 27.0453 111.132 29.7107C111.351 31.0446 111.53 32.1646 111.651 32.9704C111.712 33.3752 111.756 33.6881 111.782 33.9045C111.796 34.0146 111.803 34.083 111.806 34.1187C111.816 34.243 111.79 34.0628 111.822 33.8274L115.785 34.3685Z" fill="#009FDF" fill-opacity="0.1" mask="url(#path-2-inside-1_3_487)"/>
<mask id="path-4-inside-2_3_487" fill="white">
<path d="M98.4176 45.8972C96.9513 45.7083 90.1202 44.8446 85.2684 44.2539C84.1666 46.6256 82.9 48.9171 81.478 51.1118C82.6397 51.6541 83.647 52.4789 84.4078 53.5108L85.2804 53.4359C94.1025 52.7102 95.9857 52.4163 95.227 53.9247C95.0231 54.3535 94.6602 54.9083 94.2104 55.6219C92.834 57.79 90.2252 61.7152 89.6105 62.9507C88.7438 64.6749 89.4515 64.633 89.3765 65.3287C89.2896 66.0843 87.8772 67.5957 86.7167 66.867C86.5881 66.7743 86.4424 66.7079 86.288 66.6719C86.1336 66.6358 85.9736 66.6308 85.8172 66.657C84.7337 66.791 83.7201 67.2632 82.9204 68.0064C81.9669 70.0215 83.5202 75.6501 84.4858 75.2033C85.8022 74.5856 89.3166 72.5974 91.4367 71.245C95.147 65.3796 98.4532 59.2681 101.332 52.9531C101.664 52.3301 101.889 51.6561 101.998 50.9589C101.897 49.8738 101.511 48.8346 100.879 47.9467C100.247 47.0588 99.3919 46.3538 98.3996 45.9031"/>
</mask>
<path d="M85.2684 44.2539L85.5101 42.2686L84.067 42.0929L83.4546 43.4113L85.2684 44.2539ZM81.478 51.1118L79.7995 50.0243L78.5503 51.9524L80.6321 52.9241L81.478 51.1118ZM84.4078 53.5108L82.798 54.6976L83.4628 55.5994L84.579 55.5035L84.4078 53.5108ZM85.2804 53.4359L85.1164 51.4426L85.1092 51.4432L85.2804 53.4359ZM95.227 53.9247L93.4403 53.026L93.4304 53.0458L93.4208 53.0658L95.227 53.9247ZM94.2104 55.6219L95.8989 56.6939L95.9024 56.6883L94.2104 55.6219ZM89.6105 62.9507L91.3975 63.8489L91.401 63.8417L89.6105 62.9507ZM89.3765 65.3287L91.3634 65.5573L91.3643 65.5501L91.365 65.5429L89.3765 65.3287ZM86.7167 66.867L85.5473 68.4895L85.5991 68.5268L85.6532 68.5608L86.7167 66.867ZM85.8172 66.657L86.0626 68.6419L86.1053 68.6366L86.1478 68.6295L85.8172 66.657ZM82.9204 68.0064L81.5589 66.5414L81.2771 66.8033L81.1126 67.1509L82.9204 68.0064ZM84.4858 75.2033L85.3257 77.0184L85.3354 77.0139L84.4858 75.2033ZM91.4367 71.245L92.5123 72.9312L92.8884 72.6912L93.1269 72.3142L91.4367 71.245ZM101.332 52.9531L99.5665 52.0138L99.5378 52.0678L99.5125 52.1234L101.332 52.9531ZM101.998 50.9589L103.974 51.2687L104.013 51.0223L103.989 50.774L101.998 50.9589ZM98.6732 43.9136C97.2027 43.7241 90.367 42.8599 85.5101 42.2686L85.0267 46.2392C89.8734 46.8294 96.6998 47.6924 98.162 47.8808L98.6732 43.9136ZM83.4546 43.4113C82.3921 45.6982 81.1708 47.908 79.7995 50.0243L83.1565 52.1994C84.6293 49.9263 85.941 47.5529 87.0822 45.0966L83.4546 43.4113ZM80.6321 52.9241C81.4909 53.325 82.2356 53.9348 82.798 54.6976L86.0176 52.324C85.0585 51.0231 83.7886 49.9832 82.324 49.2996L80.6321 52.9241ZM84.579 55.5035L85.4515 55.4286L85.1092 51.4432L84.2366 51.5182L84.579 55.5035ZM85.4443 55.4292C89.9517 55.0584 92.465 54.82 93.8135 54.8422C94.1324 54.8475 94.2975 54.8676 94.3637 54.8802C94.4652 54.8996 94.2333 54.88 93.9526 54.6459C93.5558 54.315 93.3675 53.8221 93.3801 53.3833C93.3888 53.0804 93.4901 52.9271 93.4403 53.026L97.0137 54.8233C97.1537 54.5452 97.362 54.0711 97.3785 53.4984C97.3989 52.7897 97.119 52.0781 96.5145 51.5739C96.026 51.1666 95.4703 51.0194 95.115 50.9514C94.7245 50.8767 94.3 50.8497 93.8794 50.8428C92.2705 50.8163 89.4311 51.0877 85.1164 51.4426L85.4443 55.4292ZM93.4208 53.0658C93.2833 53.3551 93.0182 53.7626 92.5184 54.5556L95.9024 56.6883C96.3022 56.0539 96.763 55.3519 97.0332 54.7835L93.4208 53.0658ZM92.5219 54.55C91.8296 55.6405 90.8646 57.115 89.9407 58.5573C89.0647 59.9248 88.187 61.322 87.8199 62.0598L91.401 63.8417C91.6487 63.344 92.3827 62.1608 93.3089 60.7148C94.1873 59.3436 95.2148 57.7714 95.8989 56.6939L92.5219 54.55ZM87.8235 62.0525C87.3188 63.0567 87.0441 63.9742 87.2365 64.9229C87.3016 65.2438 87.478 65.6895 87.435 65.5663C87.4149 65.509 87.3651 65.3274 87.3881 65.1144L91.365 65.5429C91.4255 64.9821 91.3153 64.5448 91.2107 64.2458C91.1893 64.1846 91.1685 64.1304 91.1565 64.0991C91.1417 64.0604 91.1378 64.0504 91.1337 64.0392C91.129 64.0265 91.144 64.0651 91.1567 64.1278C91.2307 64.4926 91.0355 64.569 91.3974 63.8489L87.8235 62.0525ZM87.3897 65.1C87.4079 64.9416 87.4479 64.8506 87.4532 64.8384C87.4622 64.8181 87.4608 64.8261 87.4398 64.8566C87.3944 64.9226 87.3228 64.9993 87.2503 65.0536C87.2174 65.0783 87.1975 65.0883 87.1945 65.0897C87.1914 65.0912 87.2171 65.0784 87.271 65.0692C87.3275 65.0595 87.4124 65.0543 87.5145 65.0726C87.6194 65.0915 87.711 65.1297 87.7803 65.1732L85.6532 68.5608C87.2537 69.5657 88.8415 68.8593 89.6481 68.2553C90.0846 67.9284 90.455 67.5311 90.7351 67.124C90.9889 66.7551 91.289 66.2038 91.3634 65.5573L87.3897 65.1ZM87.8862 65.2445C87.5437 64.9976 87.1551 64.8205 86.7425 64.7242L85.8335 68.6196C85.7298 68.5953 85.6326 68.5509 85.5473 68.4895L87.8862 65.2445ZM86.7425 64.7242C86.3301 64.628 85.9033 64.6147 85.4866 64.6846L86.1478 68.6295C86.0438 68.647 85.937 68.6437 85.8335 68.6196L86.7425 64.7242ZM85.5717 64.6722C84.0709 64.8578 82.6667 65.5118 81.5589 66.5414L84.282 69.4713C84.7735 69.0145 85.3966 68.7243 86.0626 68.6419L85.5717 64.6722ZM81.1126 67.1509C80.6682 68.0901 80.5981 69.2063 80.628 70.11C80.66 71.0749 80.8189 72.0911 81.04 73.0006C81.257 73.8928 81.5613 74.7959 81.9377 75.4968C82.1143 75.8258 82.3883 76.2669 82.7936 76.6175C83.2027 76.9714 84.1753 77.5507 85.3257 77.0184L83.6459 73.3882C84.5549 72.9676 85.2677 73.4687 85.4107 73.5925C85.55 73.7129 85.5516 73.7718 85.4618 73.6045C85.3051 73.3127 85.0997 72.7665 84.9268 72.0555C84.7581 71.3618 84.6471 70.621 84.6259 69.9777C84.6153 69.6577 84.6279 69.3901 84.6562 69.1813C84.6701 69.0785 84.6866 68.9998 84.7018 68.9429C84.7173 68.8853 84.7286 68.861 84.7282 68.8619L81.1126 67.1509ZM85.3354 77.0139C86.7588 76.3459 90.353 74.3086 92.5123 72.9312L90.3611 69.5589C88.2802 70.8863 84.8455 72.8252 83.6362 73.3927L85.3354 77.0139ZM93.1269 72.3142C96.8858 66.372 100.235 60.1805 103.152 53.7827L99.5125 52.1234C96.6711 58.3558 93.4082 64.3872 89.7465 70.1758L93.1269 72.3142ZM103.098 53.8923C103.534 53.0727 103.83 52.186 103.974 51.2687L100.022 50.6491C99.9474 51.1261 99.7934 51.5874 99.5665 52.0138L103.098 53.8923ZM103.989 50.774C103.856 49.3377 103.345 47.9622 102.509 46.787L99.25 49.1064C99.6774 49.707 99.9384 50.4099 100.007 51.1439L103.989 50.774ZM102.509 46.787C101.672 45.6118 100.54 44.6786 99.2265 44.0821L97.5726 47.7242C98.2438 48.029 98.8225 48.5059 99.25 49.1064L102.509 46.787Z" fill="#009FDF" fill-opacity="0.1" mask="url(#path-4-inside-2_3_487)"/>
</svg>
