<svg width="119" height="124" viewBox="0 0 119 124" fill="none" xmlns="http://www.w3.org/2000/svg">
<path d="M52.1735 93.2272C50.0911 97.4598 47.7901 101.582 45.2799 105.578C43.6936 106.96 41.9879 108.199 40.183 109.281C38.8931 109.941 37.452 110.23 36.0184 110.127C36.3625 107.933 37.2063 105.846 38.4876 104.026C38.6145 103.999 38.7846 103.971 39.0049 103.941C39.1921 103.917 39.3921 103.894 39.6072 103.869L39.6202 103.867C39.8368 103.842 40.0674 103.816 40.2951 103.785C40.7385 103.726 41.2324 103.645 41.6574 103.505C42.0209 103.385 42.6425 103.128 42.9267 102.511L42.9272 102.509C43.0234 102.3 43.3203 101.481 43.7132 100.397L43.7309 100.348C43.7556 100.28 43.7807 100.211 43.8063 100.14C44.1753 99.1224 44.638 97.8458 45.1495 96.4588C47.5459 95.5022 49.8896 94.4235 52.1735 93.2272Z" stroke="#009FDF" stroke-opacity="0.1" stroke-width="2"/>
<mask id="path-2-inside-1_3_482" fill="white">
<path d="M41.6585 61.934C42.7157 58.8241 44.3859 55.9578 46.5703 53.5047C44.0225 55.1129 41.2089 56.2552 38.261 56.8782C31.2951 58.2156 23.5435 55.2379 12.0526 61.1423C0.849502 66.9058 -0.841727 79.7941 0.306766 80.5137C1.34731 81.1615 0.546636 74.7713 15.0512 71.5027C24.3256 69.583 33.2822 66.3626 41.6555 61.9369"/>
</mask>
<path d="M46.5703 53.5047L48.064 54.8348L45.5028 51.8134L46.5703 53.5047ZM38.261 56.8782L38.6381 58.8423L38.6564 58.8388L38.6745 58.835L38.261 56.8782ZM12.0526 61.1423L11.1385 59.3634L11.1376 59.3639L12.0526 61.1423ZM0.306766 80.5137L-0.755225 82.2085L-0.750152 82.2117L0.306766 80.5137ZM15.0512 71.5027L14.6459 69.5442L14.6287 69.5478L14.6116 69.5516L15.0512 71.5027ZM43.5521 62.5777C44.5232 59.721 46.0574 57.0881 48.064 54.8348L45.0767 52.1746C42.7144 54.8274 40.9082 57.9271 39.7649 61.2903L43.5521 62.5777ZM45.5028 51.8134C43.1555 53.2951 40.5633 54.3475 37.8475 54.9214L38.6745 58.835C41.8544 58.163 44.8895 56.9308 47.6379 55.196L45.5028 51.8134ZM37.8839 54.9141C36.3341 55.2116 34.6973 55.2772 32.8419 55.2784C31.0404 55.2795 28.9475 55.2169 26.778 55.2991C22.319 55.468 17.2056 56.2459 11.1385 59.3634L12.9666 62.9212C18.3904 60.1343 22.8983 59.4489 26.9294 59.2962C29.0048 59.2176 30.8741 59.2796 32.8443 59.2784C34.7606 59.2772 36.705 59.2135 38.6381 58.8423L37.8839 54.9141ZM11.1376 59.3639C5.01324 62.5146 1.51261 67.6025 -0.298415 71.9504C-1.20355 74.1235 -1.70726 76.1582 -1.90295 77.7497C-1.99976 78.537 -2.02897 79.2777 -1.96851 79.9035C-1.93877 80.2113 -1.88072 80.565 -1.75877 80.909C-1.65874 81.1913 -1.40089 81.8039 -0.75522 82.2085L1.36875 78.819C1.87086 79.1336 2.00733 79.5612 2.01143 79.5728C2.03745 79.6462 2.02501 79.6436 2.01296 79.5188C1.98984 79.2795 1.99186 78.8502 2.06714 78.2379C2.21563 77.0303 2.61958 75.3479 3.39408 73.4885C4.94231 69.7714 7.88882 65.5335 12.9675 62.9208L11.1376 59.3639ZM-0.750152 82.2117C-0.39034 82.4356 0.200333 82.665 0.912751 82.5088C1.55784 82.3674 1.95674 81.9801 2.13817 81.7762C2.44482 81.4316 2.68729 80.9436 2.77492 80.7792C3.05191 80.2593 3.41015 79.595 4.1126 78.8192C5.50621 77.2799 8.52011 75.0246 15.4909 73.4538L14.6116 69.5516C7.07776 71.2493 3.2397 73.8235 1.14735 76.1345C0.106832 77.2838 -0.436398 78.2999 -0.755204 78.8982C-0.96547 79.2928 -0.944483 79.2233 -0.849871 79.117C-0.774454 79.0322 -0.479216 78.719 0.0562022 78.6016C0.65895 78.4695 1.13394 78.6728 1.36368 78.8158L-0.750152 82.2117ZM15.4566 73.4612C24.9155 71.5033 34.0502 68.2188 42.5901 63.7051L40.7209 60.1687C32.5142 64.5064 23.7357 67.6627 14.6459 69.5442L15.4566 73.4612Z" fill="#009FDF" fill-opacity="0.1" mask="url(#path-2-inside-1_3_482)"/>
<mask id="path-4-inside-2_3_482" fill="white">
<path d="M159.048 5.96738C159.971 4.06953 160.658 2.06537 161.093 0C158.669 0.0726066 156.264 0.445269 153.932 1.1095C153.018 1.25943 116.97 -6.68705 95.326 30.3226C105.701 28.3495 109.42 29.0032 105.755 29.9748C103.998 30.4396 82.6476 35.9721 75.6067 37.8283C59.3359 42.1254 43.8387 50.3838 43.8387 68.1869C43.8387 76.5082 46.1087 79.8398 41.3408 83.6811C38.2342 86.182 28.4225 88.437 27.9577 89.7534C27.4929 91.0698 19.9423 111.152 19.4745 112.16C19.0067 113.167 15.8161 112.783 14.6526 113.251C13.4891 113.719 10.2386 122.211 11.0212 122.829C13.4202 123.295 15.9062 122.934 18.0741 121.806C20.3396 120.448 22.445 118.838 24.3503 117.008C26.0536 115.383 30.3686 103.832 34.4169 98.3806C36.6854 95.7077 39.8635 93.9696 43.3379 93.5017C61.1711 88.6109 73.0638 75.4737 74.6471 62.8343C75.1089 59.1369 75.9366 56.4291 76.1645 60.8941C76.3118 63.566 76.174 66.2459 75.7536 68.8886C81.3672 67.1583 93.146 67.4492 102.421 65.629C107.74 64.8379 112.887 63.1508 117.642 60.6392C127.628 59.5687 127.328 59.5867 124.983 63.2961C123.442 65.725 120.515 70.127 119.825 71.5064C118.857 73.4436 119.648 73.3926 119.561 74.1752C119.468 75.0329 117.87 76.7211 116.581 75.9025C116.437 75.796 116.274 75.72 116.1 75.6792C115.926 75.6385 115.746 75.6338 115.57 75.6656C114.355 75.8139 113.219 76.3442 112.325 77.1799C111.258 79.4379 113 85.7382 114.074 85.2314C115.552 84.5417 119.489 82.3167 121.87 80.7963C122.857 80.1666 133.829 59.8296 133.676 58.1264C133.499 56.2582 131.943 52.7287 129.013 52.3389C124.86 51.8051 112.34 50.3838 112.34 50.1379C112.34 49.4662 120.68 49.5381 129.199 50.3568C137.397 40.5091 139.212 24.919 143.293 24.4842C144.939 24.2983 149.08 28.7663 153.377 33.6662C153.551 34.7813 153.832 35.8769 154.217 36.9377C155.658 37.8795 157.33 38.4075 159.051 38.464C159.986 38.3201 163.66 35.2495 163.804 34.098C163.906 33.3513 159.057 5.95535 159.057 5.95535"/>
</mask>
<path d="M161.093 0L163.05 0.411946L163.574 -2.07521L161.033 -1.9991L161.093 0ZM153.932 1.1095L154.256 3.08315L154.369 3.06453L154.48 3.03299L153.932 1.1095ZM95.326 30.3226L93.5996 29.3129L91.3795 33.109L95.6997 32.2874L95.326 30.3226ZM105.755 29.9748L106.267 31.9083L106.268 31.908L105.755 29.9748ZM75.6067 37.8283L75.0969 35.8944L75.096 35.8946L75.6067 37.8283ZM41.3408 83.6811L42.595 85.239L42.5956 85.2385L41.3408 83.6811ZM11.0212 122.829L9.78213 124.399L10.1633 124.7L10.6399 124.792L11.0212 122.829ZM18.0741 121.806L18.9973 123.58L19.0509 123.553L19.1027 123.521L18.0741 121.806ZM24.3503 117.008L22.9696 115.561L22.965 115.566L24.3503 117.008ZM34.4169 98.3806L32.892 97.0864L32.8499 97.136L32.8112 97.1882L34.4169 98.3806ZM43.3379 93.5017L43.6049 95.4838L43.7377 95.466L43.8669 95.4305L43.3379 93.5017ZM74.6471 62.8343L76.6316 63.0828L76.6317 63.0821L74.6471 62.8343ZM76.1645 60.8941L74.1671 60.9961L74.1675 61.0042L76.1645 60.8941ZM75.7536 68.8886L73.7785 68.5744L73.274 71.7457L76.3427 70.7999L75.7536 68.8886ZM102.421 65.629L102.127 63.6508L102.081 63.6576L102.036 63.6665L102.421 65.629ZM117.642 60.6392L117.429 58.6506L117.047 58.6915L116.708 58.8707L117.642 60.6392ZM124.983 63.2961L126.672 64.3677L126.673 64.3648L124.983 63.2961ZM119.825 71.5064L118.036 70.612L119.825 71.5064ZM119.561 74.1752L117.574 73.9544L117.573 73.9597L119.561 74.1752ZM116.581 75.9025L115.387 77.5074L115.446 77.5514L115.509 77.591L116.581 75.9025ZM115.57 75.6656L115.812 77.6509L115.869 77.6439L115.926 77.6337L115.57 75.6656ZM112.325 77.1799L110.96 75.7191L110.681 75.9799L110.517 76.3251L112.325 77.1799ZM114.074 85.2314L113.228 83.4189L113.22 83.4228L114.074 85.2314ZM121.87 80.7963L120.794 79.1105L120.794 79.1107L121.87 80.7963ZM133.676 58.1264L135.668 57.9475L135.667 57.9378L133.676 58.1264ZM129.013 52.3389L129.277 50.3563L129.268 50.3552L129.013 52.3389ZM129.199 50.3568L129.008 52.3476L130.06 52.4487L130.736 51.6364L129.199 50.3568ZM143.293 24.4842L143.505 26.473L143.517 26.4715L143.293 24.4842ZM153.377 33.6662L155.354 33.3589L155.264 32.7845L154.881 32.3475L153.377 33.6662ZM154.217 36.9377L152.337 37.6201L152.565 38.247L153.123 38.6119L154.217 36.9377ZM159.051 38.464L158.985 40.4629L159.171 40.469L159.355 40.4408L159.051 38.464ZM163.804 34.098L161.822 33.8274L161.821 33.8386L161.819 33.8499L163.804 34.098ZM160.846 6.8425C161.841 4.79732 162.582 2.63761 163.05 0.411946L159.136 -0.411946C158.735 1.49314 158.101 3.34173 157.25 5.09227L160.846 6.8425ZM161.033 -1.9991C158.444 -1.92155 155.875 -1.52349 153.384 -0.813997L154.48 3.03299C156.653 2.41403 158.894 2.06676 161.153 1.9991L161.033 -1.9991ZM153.609 -0.86416C153.736 -0.884998 153.833 -0.887486 153.868 -0.888114C153.912 -0.888917 153.943 -0.887667 153.954 -0.887177C153.974 -0.886242 153.975 -0.885503 153.943 -0.888746C153.879 -0.895086 153.777 -0.907413 153.615 -0.928111C153.307 -0.967516 152.844 -1.02961 152.272 -1.0966C151.119 -1.23161 149.497 -1.39046 147.508 -1.46575C143.535 -1.61619 138.088 -1.43357 131.964 -0.057697C119.665 2.70573 104.738 10.2677 93.5996 29.3129L97.0525 31.3323C107.559 13.3679 121.477 6.39825 132.841 3.84501C138.549 2.56255 143.638 2.39058 147.357 2.53138C149.215 2.60171 150.728 2.74994 151.806 2.87624C152.35 2.9399 152.775 2.99702 153.107 3.03947C153.265 3.0597 153.42 3.07897 153.547 3.09165C153.61 3.09791 153.69 3.10502 153.774 3.10877C153.814 3.11058 154.018 3.12203 154.256 3.08315L153.609 -0.86416ZM95.6997 32.2874C100.844 31.309 104.205 31.0103 105.762 31.044C105.947 31.048 106.091 31.0565 106.198 31.0666C106.31 31.0771 106.355 31.0871 106.352 31.0864C106.349 31.0858 106.317 31.0784 106.265 31.0597C106.218 31.0426 106.117 31.0026 105.993 30.9252C105.796 30.8025 105.104 30.2889 105.132 29.2868C105.155 28.441 105.697 27.995 105.759 27.9434C105.892 27.8324 105.982 27.7976 105.938 27.8182C105.867 27.8513 105.656 27.932 105.243 28.0416L106.268 31.908C106.771 31.7747 107.245 31.6224 107.632 31.4415C107.817 31.3551 108.079 31.2181 108.326 31.0107C108.503 30.8626 109.104 30.3261 109.13 29.3967C109.16 28.3111 108.414 27.721 108.107 27.5299C107.777 27.3241 107.445 27.2335 107.251 27.1888C106.83 27.0916 106.336 27.0554 105.849 27.0449C103.869 27.0021 100.183 27.3631 94.9524 28.3578L95.6997 32.2874ZM105.244 28.0413C103.45 28.5158 82.1944 34.0233 75.0969 35.8944L76.1165 39.7622C83.1008 37.921 104.546 32.3634 106.267 31.9083L105.244 28.0413ZM75.096 35.8946C66.847 38.0732 58.5861 41.3037 52.3558 46.3941C46.0511 51.5452 41.8387 58.602 41.8387 68.1869H45.8387C45.8387 59.9687 49.375 53.9947 54.8866 49.4916C60.4725 44.9278 68.0956 41.8806 76.1174 39.762L75.096 35.8946ZM41.8387 68.1869C41.8387 70.3587 41.9872 72.1986 42.1269 73.7569C42.2703 75.3559 42.3906 76.5419 42.3779 77.5898C42.3657 78.5942 42.2281 79.3246 41.9296 79.9653C41.632 80.6042 41.1044 81.3032 40.0861 82.1237L42.5956 85.2385C43.9612 84.1383 44.9378 82.9804 45.5555 81.6543C46.1724 80.3299 46.3613 78.987 46.3776 77.6382C46.3934 76.3329 46.2442 74.8857 46.1109 73.3996C45.974 71.8729 45.8387 70.1758 45.8387 68.1869H41.8387ZM40.0867 82.1232C39.5368 82.5658 38.557 83.088 37.2177 83.6611C35.9159 84.2181 34.4367 84.7571 32.9828 85.2791C31.5621 85.7891 30.1285 86.2956 29.0314 86.7579C28.4859 86.9877 27.9478 87.2376 27.505 87.505C27.2838 87.6386 27.0334 87.8079 26.8034 88.0174C26.5954 88.207 26.2584 88.5591 26.0718 89.0875L29.8436 90.4193C29.7152 90.7831 29.5093 90.9634 29.4976 90.974C29.4639 91.0047 29.475 90.9881 29.5727 90.9292C29.7675 90.8115 30.0965 90.6497 30.5847 90.444C31.5551 90.035 32.8558 89.5746 34.3344 89.0438C35.7798 88.5249 37.3651 87.9489 38.7913 87.3386C40.1799 86.7444 41.5915 86.0468 42.595 85.239L40.0867 82.1232ZM26.0718 89.0875C25.8487 89.7195 23.8561 95.0397 21.846 100.366C20.8443 103.021 19.8432 105.664 19.0636 107.705C18.6736 108.726 18.3402 109.594 18.0903 110.236C17.9652 110.558 17.8625 110.819 17.7848 111.013C17.7459 111.111 17.7148 111.187 17.6911 111.244C17.6644 111.309 17.6564 111.326 17.6605 111.317L21.2885 113.002C21.5636 112.409 23.6118 107.016 25.5884 101.778C27.5869 96.4828 29.602 91.1037 29.8436 90.4193L26.0718 89.0875ZM17.6605 111.317C17.9287 110.739 18.3963 110.69 18.1214 110.771C17.9429 110.824 17.6339 110.873 17.1485 110.915C16.8323 110.943 16.0341 110.996 15.6382 111.034C15.1716 111.079 14.4927 111.16 13.9065 111.395L15.3987 115.107C15.3943 115.108 15.5505 115.061 16.024 115.015C16.5682 114.963 16.815 114.96 17.5004 114.9C18.0165 114.854 18.6656 114.781 19.2532 114.608C19.7446 114.463 20.7864 114.083 21.2885 113.002L17.6605 111.317ZM13.9065 111.395C13.4669 111.572 13.1595 111.851 12.9931 112.019C12.8035 112.21 12.6395 112.418 12.503 112.609C12.229 112.993 11.9613 113.455 11.7123 113.931C11.2094 114.892 10.6872 116.093 10.2381 117.272C9.79024 118.448 9.38953 119.669 9.14965 120.672C9.03248 121.163 8.93391 121.681 8.90792 122.148C8.89522 122.376 8.8938 122.684 8.95773 123.01C9.01176 123.285 9.17817 123.922 9.78213 124.399L12.2603 121.259C12.7664 121.658 12.8665 122.157 12.8828 122.239C12.9089 122.372 12.8982 122.434 12.9017 122.37C12.9083 122.253 12.9443 122.003 13.04 121.603C13.2259 120.825 13.5638 119.778 13.9762 118.696C14.3873 117.616 14.847 116.568 15.2563 115.785C15.4635 115.39 15.6345 115.107 15.7579 114.934C15.82 114.847 15.8445 114.824 15.8299 114.839C15.821 114.848 15.787 114.881 15.7279 114.925C15.6716 114.967 15.561 115.041 15.3987 115.107L13.9065 111.395ZM10.6399 124.792C13.4826 125.344 16.4284 124.917 18.9973 123.58L17.1509 120.032C15.384 120.951 13.3578 121.245 11.4025 120.865L10.6399 124.792ZM19.1027 123.521C21.497 122.086 23.722 120.385 25.7357 118.451L22.965 115.566C21.168 117.292 19.1823 118.81 17.0455 120.091L19.1027 123.521ZM25.731 118.455C26.1535 118.052 26.5227 117.491 26.8213 116.993C27.1459 116.451 27.4947 115.797 27.8567 115.082C28.5785 113.657 29.4222 111.852 30.3097 109.99C32.1269 106.177 34.1361 102.113 36.0226 99.5729L32.8112 97.1882C30.6494 100.099 28.477 104.537 26.6988 108.269C25.7885 110.179 24.9811 111.907 24.2883 113.275C23.943 113.957 23.6436 114.514 23.3904 114.937C23.2642 115.147 23.1598 115.307 23.0765 115.423C22.9872 115.547 22.9519 115.578 22.9696 115.561L25.731 118.455ZM35.9417 99.6747C37.8904 97.3787 40.6203 95.8858 43.6049 95.4838L43.071 91.5196C39.1067 92.0535 35.4804 94.0366 32.892 97.0864L35.9417 99.6747ZM43.8669 95.4305C62.2711 90.3831 74.9232 76.7207 76.6316 63.0828L72.6626 62.5857C71.2044 74.2266 60.071 86.8387 42.809 91.573L43.8669 95.4305ZM76.6317 63.0821C76.7424 62.196 76.8727 61.3884 77.0052 60.7498C77.0716 60.43 77.135 60.1694 77.192 59.9715C77.2546 59.754 77.2892 59.6842 77.2791 59.7042C77.2768 59.7087 77.2189 59.8284 77.0849 59.9765C76.9794 60.0932 76.5777 60.5053 75.8718 60.564C75.053 60.6321 74.5135 60.1845 74.2941 59.9318C74.0968 59.7045 74.0263 59.5035 74.0201 59.4868C73.9994 59.4307 74.0297 59.4983 74.0697 59.8037C74.1058 60.0792 74.1402 60.4686 74.1671 60.9961L78.1619 60.7922C78.1068 59.714 78.0107 58.7458 77.7722 58.1004C77.7076 57.9257 77.5759 57.6105 77.315 57.3099C77.0321 56.984 76.4267 56.5041 75.5402 56.5778C74.7665 56.6422 74.2952 57.0979 74.1187 57.293C73.9137 57.5195 73.7835 57.7526 73.7079 57.9024C73.4292 58.4549 73.2336 59.2386 73.0887 59.937C72.929 60.7064 72.7827 61.6238 72.6625 62.5864L76.6317 63.0821ZM74.1675 61.0042C74.307 63.5342 74.1766 66.0719 73.7785 68.5744L77.7288 69.2028C78.1715 66.4199 78.3166 63.5977 78.1614 60.784L74.1675 61.0042ZM76.3427 70.7999C78.8863 70.0159 82.97 69.6648 87.8682 69.2866C92.6375 68.9184 98.0298 68.529 102.806 67.5916L102.036 63.6665C97.5371 64.5493 92.4025 64.9246 87.5603 65.2985C82.847 65.6624 78.2345 66.0311 75.1645 66.9773L76.3427 70.7999ZM102.715 67.6073C108.258 66.7829 113.621 65.0248 118.576 62.4077L116.708 58.8707C112.153 61.2767 107.222 62.8929 102.127 63.6508L102.715 67.6073ZM117.855 62.6278C120.371 62.3581 122.176 62.1641 123.467 62.0765C124.111 62.0328 124.576 62.0195 124.906 62.0303C125.272 62.0422 125.321 62.0808 125.226 62.0448C125.065 61.9836 124.566 61.7138 124.391 61.0572C124.264 60.5803 124.429 60.2803 124.371 60.4252C124.259 60.7085 123.954 61.1811 123.292 62.2274L126.673 64.3648C127.185 63.5564 127.797 62.6357 128.087 61.9058C128.231 61.5441 128.47 60.8326 128.256 60.0289C127.995 59.0456 127.248 58.534 126.647 58.3056C126.112 58.1024 125.529 58.0485 125.037 58.0324C124.509 58.0153 123.892 58.0385 123.196 58.0857C121.808 58.1799 119.906 58.3851 117.429 58.6506L117.855 62.6278ZM123.294 62.2245C122.521 63.4425 121.432 65.1063 120.401 66.7155C119.415 68.2531 118.44 69.8041 118.036 70.612L121.614 72.4009C121.9 71.8294 122.733 70.4897 123.768 68.8741C124.758 67.3303 125.903 65.5786 126.672 64.3677L123.294 62.2245ZM118.036 70.612C117.481 71.7222 117.204 72.6884 117.402 73.669C117.47 74.0035 117.652 74.4669 117.613 74.3539C117.597 74.3086 117.553 74.1432 117.574 73.9544L121.549 74.3961C121.614 73.8159 121.503 73.3635 121.393 73.0471C121.371 72.9817 121.349 72.9235 121.335 72.8882C121.319 72.8452 121.314 72.8315 121.308 72.816C121.3 72.7951 121.312 72.8253 121.323 72.8785C121.389 73.2047 121.201 73.2278 121.614 72.4009L118.036 70.612ZM117.573 73.9597C117.582 73.8804 117.596 73.8228 117.605 73.7898C117.615 73.7559 117.623 73.7363 117.626 73.7311C117.629 73.723 117.62 73.7443 117.59 73.7885C117.561 73.8309 117.521 73.881 117.472 73.9324C117.423 73.9836 117.372 74.0285 117.324 74.0643C117.275 74.1005 117.239 74.1208 117.218 74.1303C117.198 74.1398 117.206 74.133 117.242 74.1269C117.281 74.1203 117.348 74.1153 117.434 74.1309C117.522 74.1471 117.598 74.1796 117.653 74.214L115.509 77.591C117.177 78.6498 118.849 77.9171 119.715 77.2706C120.184 76.9211 120.584 76.4944 120.885 76.0556C121.161 75.6552 121.476 75.0691 121.55 74.3908L117.573 73.9597ZM117.774 74.2976C117.411 74.0277 116.997 73.8352 116.556 73.732L115.643 77.6264C115.551 77.6047 115.464 77.5642 115.387 77.5074L117.774 74.2976ZM116.556 73.732C116.116 73.6287 115.659 73.6171 115.214 73.6975L115.926 77.6337C115.832 77.6506 115.736 77.6482 115.643 77.6264L116.556 73.732ZM115.328 73.6804C113.692 73.88 112.163 74.5939 110.96 75.7191L113.691 78.6408C114.276 78.0945 115.018 77.7478 115.812 77.6509L115.328 73.6804ZM110.517 76.3251C110.045 77.3249 109.965 78.5285 109.998 79.5284C110.034 80.5894 110.209 81.7104 110.453 82.7151C110.694 83.7025 111.028 84.6913 111.435 85.4503C111.627 85.808 111.917 86.2723 112.339 86.6366C112.765 87.0051 113.76 87.591 114.928 87.04L113.22 83.4228C114.119 82.9985 114.825 83.4984 114.954 83.6105C115.079 83.7185 115.066 83.756 114.96 83.5591C114.772 83.2087 114.536 82.5764 114.34 81.7698C114.148 80.9805 114.021 80.1348 113.996 79.3952C113.97 78.5946 114.073 78.1639 114.134 78.0347L110.517 76.3251ZM114.919 87.0439C116.507 86.303 120.526 84.0276 122.947 82.482L120.794 79.1107C118.453 80.6058 114.597 82.7804 113.228 83.4189L114.919 87.0439ZM122.946 82.4822C123.234 82.2983 123.432 82.0717 123.499 81.995C123.601 81.8784 123.697 81.7533 123.782 81.6372C123.953 81.4026 124.148 81.1097 124.355 80.7847C124.772 80.1291 125.297 79.2476 125.886 78.2266C127.065 76.1792 128.536 73.5032 129.968 70.8C131.399 68.0985 132.802 65.3485 133.842 63.1556C134.36 62.0628 134.801 61.0825 135.111 60.3046C135.265 59.9185 135.4 59.5498 135.497 59.2251C135.563 59.0002 135.716 58.481 135.668 57.9475L131.684 58.3052C131.655 57.9846 131.74 57.8239 131.663 58.0844C131.615 58.245 131.529 58.4885 131.396 58.8227C131.131 59.4855 130.732 60.3783 130.228 61.4415C129.223 63.5605 127.85 66.2534 126.433 68.9278C125.018 71.6005 123.57 74.2333 122.42 76.2295C121.843 77.2302 121.351 78.0542 120.98 78.638C120.792 78.9326 120.65 79.1428 120.553 79.2762C120.503 79.3441 120.482 79.3691 120.484 79.3665C120.485 79.3648 120.506 79.3415 120.542 79.3067C120.57 79.2795 120.658 79.1977 120.794 79.1105L122.946 82.4822ZM135.667 57.9378C135.546 56.6604 134.994 54.9962 134.04 53.5679C133.085 52.136 131.523 50.6552 129.277 50.3564L128.749 54.3214C129.433 54.4124 130.114 54.8912 130.713 55.7886C131.315 56.6895 131.629 57.7242 131.685 58.3149L135.667 57.9378ZM129.268 50.3552C127.192 50.0884 122.984 49.5947 119.366 49.1457C117.543 48.9194 115.863 48.7039 114.643 48.5304C114.029 48.4431 113.555 48.3696 113.243 48.3131C113.167 48.2994 113.106 48.2876 113.059 48.2779C113.036 48.2731 113.018 48.2691 113.004 48.2661C112.998 48.2646 112.993 48.2634 112.989 48.2626C112.986 48.2617 112.984 48.2613 112.984 48.2613C112.984 48.2614 112.987 48.262 112.992 48.2634C112.997 48.2648 113.005 48.2671 113.016 48.2706C113.034 48.2761 113.081 48.2913 113.145 48.318C113.188 48.3357 113.348 48.4024 113.529 48.5354C113.579 48.5719 114.34 49.0933 114.34 50.1379H110.34C110.34 51.1902 111.108 51.7198 111.17 51.7651C111.364 51.9069 111.541 51.983 111.608 52.0106C111.764 52.0757 111.909 52.1147 111.98 52.1332C112.147 52.1766 112.343 52.2153 112.53 52.2492C112.919 52.3196 113.455 52.4017 114.08 52.4905C115.337 52.6694 117.047 52.8886 118.873 53.1152C122.552 53.5718 126.681 54.0556 128.758 54.3226L129.268 50.3552ZM114.34 50.1379C114.34 51.2405 113.497 51.7177 113.43 51.7562C113.255 51.8568 113.138 51.8766 113.197 51.862C113.282 51.8409 113.513 51.8019 113.94 51.7669C114.763 51.6995 116 51.6704 117.552 51.6883C120.639 51.7239 124.797 51.943 129.008 52.3476L129.39 48.3659C125.082 47.9519 120.811 47.7257 117.598 47.6886C116 47.6701 114.62 47.6978 113.613 47.7803C113.126 47.8202 112.638 47.8794 112.234 47.9797C112.048 48.0258 111.744 48.1122 111.442 48.2851C111.249 48.396 110.34 48.9513 110.34 50.1379H114.34ZM130.736 51.6364C135.078 46.4206 137.683 39.7519 139.657 34.6071C140.672 31.9622 141.49 29.7985 142.296 28.2483C142.697 27.4773 143.036 26.9779 143.312 26.6839C143.585 26.3921 143.647 26.4578 143.505 26.4729L143.081 22.4954C141.918 22.6193 141.031 23.2672 140.392 23.9497C139.755 24.63 139.219 25.4969 138.748 26.4024C137.81 28.2054 136.896 30.6363 135.923 33.1742C133.92 38.3951 131.518 44.4453 127.662 49.0771L130.736 51.6364ZM143.517 26.4715C143.257 26.501 143.144 26.4258 143.267 26.4761C143.369 26.5179 143.554 26.614 143.831 26.8028C144.383 27.1804 145.097 27.7869 145.956 28.6111C147.665 30.2508 149.724 32.5331 151.874 34.9849L154.881 32.3475C152.734 29.8993 150.573 27.4977 148.726 25.7249C147.806 24.8428 146.908 24.0609 146.087 23.5C145.676 23.2195 145.234 22.9587 144.778 22.7727C144.343 22.595 143.741 22.4209 143.068 22.4968L143.517 26.4715ZM151.401 33.9734C151.594 35.2164 151.908 36.4377 152.337 37.6201L156.097 36.2553C155.756 35.3161 155.507 34.3461 155.354 33.3589L151.401 33.9734ZM153.123 38.6119C154.871 39.754 156.898 40.3943 158.985 40.4629L159.117 36.4651C157.762 36.4206 156.446 36.0049 155.311 35.2635L153.123 38.6119ZM159.355 40.4408C159.813 40.3702 160.215 40.1751 160.448 40.0527C160.728 39.9057 161.017 39.7249 161.295 39.5354C161.853 39.1544 162.47 38.6677 163.048 38.1583C163.622 37.6517 164.201 37.0833 164.664 36.5311C164.895 36.2561 165.125 35.9519 165.314 35.6352C165.482 35.3533 165.719 34.8969 165.788 34.346L161.819 33.8499C161.852 33.5869 161.943 33.4784 161.879 33.5853C161.836 33.6575 161.748 33.7832 161.6 33.9603C161.305 34.3122 160.88 34.7364 160.401 35.1593C159.925 35.5795 159.439 35.9594 159.041 36.2307C158.841 36.3672 158.688 36.4589 158.587 36.5119C158.44 36.5895 158.522 36.5218 158.747 36.4873L159.355 40.4408ZM165.785 34.3685C165.824 34.0864 165.794 33.8076 165.792 33.7844C165.783 33.6726 165.768 33.5448 165.752 33.4132C165.719 33.1463 165.669 32.7941 165.607 32.3783C165.482 31.543 165.299 30.4001 165.079 29.0607C164.637 26.3793 164.039 22.8786 163.439 19.4061C162.839 15.9326 162.236 12.4828 161.783 9.90177C161.556 8.61116 161.367 7.53757 161.235 6.78657C161.168 6.41107 161.116 6.1162 161.081 5.91518C161.063 5.81466 161.049 5.73761 161.04 5.68566C161.036 5.65968 161.032 5.63998 161.03 5.62677C161.029 5.62016 161.028 5.61518 161.027 5.61184C161.027 5.61017 161.027 5.60891 161.026 5.60806C161.026 5.60764 161.026 5.60732 161.026 5.60711C161.026 5.60689 161.026 5.60678 159.057 5.95535C157.087 6.30392 157.087 6.30401 157.088 6.30421C157.088 6.30442 157.088 6.30473 157.088 6.30514C157.088 6.30596 157.088 6.3072 157.088 6.30884C157.089 6.31214 157.09 6.31708 157.091 6.32365C157.093 6.33677 157.097 6.35638 157.101 6.38227C157.11 6.43403 157.124 6.5109 157.142 6.61123C157.177 6.81187 157.229 7.10632 157.295 7.48138C157.428 8.23151 157.617 9.30406 157.843 10.5935C158.296 13.1725 158.898 16.6184 159.498 20.0872C160.097 23.557 160.693 27.0453 161.132 29.7107C161.351 31.0446 161.531 32.1646 161.651 32.9704C161.712 33.3752 161.756 33.6881 161.782 33.9045C161.796 34.0146 161.803 34.083 161.806 34.1187C161.817 34.243 161.79 34.0628 161.822 33.8274L165.785 34.3685Z" fill="#009FDF" fill-opacity="0.1" mask="url(#path-4-inside-2_3_482)"/>
</svg>
