<svg width="25" height="24" viewBox="0 0 25 24" fill="none" xmlns="http://www.w3.org/2000/svg">
<path d="M2.66675 10C2.66675 6.22876 2.66675 4.34315 3.83832 3.17157C5.0099 2 6.89551 2 10.6667 2H14.6667C18.4379 2 20.3236 2 21.4951 3.17157C22.6667 4.34315 22.6667 6.22876 22.6667 10C22.6667 13.7712 22.6667 15.6569 21.4951 16.8284C20.3236 18 18.4379 18 14.6667 18H10.6667C6.89551 18 5.0099 18 3.83832 16.8284C2.66675 15.6569 2.66675 13.7712 2.66675 10Z" stroke="#009FDF" stroke-width="1.5" stroke-linecap="round"/>
<path d="M16.6667 22C15.49 21.364 14.1238 21 12.6667 21C11.2096 21 9.84344 21.364 8.66675 22" stroke="#009FDF" stroke-width="1.5" stroke-linecap="round"/>
</svg>
