<svg width="24" height="24" viewBox="0 0 24 24" fill="none" xmlns="http://www.w3.org/2000/svg">
<path d="M2.00009 10C2.00009 6.68286 4.68295 4 8.00009 4L7.14295 5.71429" stroke="#009FDF" stroke-width="1.5" stroke-linecap="round" stroke-linejoin="round"/>
<path d="M22.0001 14C22.0001 17.3171 19.3172 20 16.0001 20L16.8572 18.2857" stroke="#009FDF" stroke-width="1.5" stroke-linecap="round" stroke-linejoin="round"/>
<path d="M17.2501 2.5156C19.0804 1.76088 20.6916 2.01217 21.5652 2.17234C21.8139 2.21794 22.0001 2.46181 22.0001 2.74528V9.20426C22.0001 9.54282 21.7381 9.79534 21.4408 9.74278C20.5438 9.58416 18.9967 9.38826 17.2501 10.1085C15.3722 10.8828 13.4821 11.0285 12.4506 10.9958C12.194 10.9877 12.0001 10.7457 12.0001 10.4568V3.99467C12.0001 3.66171 12.2553 3.39978 12.5513 3.40549C13.6019 3.42576 15.4317 3.2654 17.2501 2.5156Z" stroke="#009FDF" stroke-width="1.5" stroke-linecap="round" stroke-linejoin="round"/>
<path d="M7.25009 13.5156C9.08041 12.7609 10.6916 13.0122 11.5652 13.1723C11.8139 13.2179 12.0001 13.4618 12.0001 13.7453V20.2043C12.0001 20.5428 11.7381 20.7953 11.4408 20.7428C10.5438 20.5842 8.99672 20.3883 7.25009 21.1085C5.37215 21.8828 3.48206 22.0285 2.45061 21.9958C2.19398 21.9877 2.00009 21.7457 2.00009 21.4568V14.9947C2.00009 14.6617 2.25534 14.3998 2.55125 14.4055C3.60187 14.4258 5.43167 14.2654 7.25009 13.5156Z" stroke="#009FDF" stroke-width="1.5" stroke-linecap="round" stroke-linejoin="round"/>
<path d="M16.9999 6.5H17.0089" stroke="#009FDF" stroke-width="2" stroke-linecap="round" stroke-linejoin="round"/>
<path d="M6.99991 17.5H7.00889" stroke="#009FDF" stroke-width="2" stroke-linecap="round" stroke-linejoin="round"/>
</svg>
