<svg width="25" height="24" viewBox="0 0 25 24" fill="none" xmlns="http://www.w3.org/2000/svg">
<path d="M12.5001 1.9999C18.0201 1.9999 22.5001 6.4799 22.5001 11.9999C22.5001 17.5199 18.0201 21.9999 12.5001 21.9999C6.97012 21.9999 2.50012 17.5199 2.50012 11.9999C2.50012 6.4799 6.97012 1.9999 12.5001 1.9999ZM16.9801 10.8009C16.3101 10.8009 15.7801 11.3399 15.7801 11.9999C15.7801 12.6599 16.3101 13.1999 16.9801 13.1999C17.6401 13.1999 18.1701 12.6599 18.1701 11.9999C18.1701 11.3399 17.6401 10.8009 16.9801 10.8009ZM12.5001 10.8009C11.8401 10.8009 11.3001 11.3399 11.3001 11.9999C11.3001 12.6599 11.8401 13.1999 12.5001 13.1999C13.1601 13.1999 13.6901 12.6599 13.6901 11.9999C13.6901 11.3399 13.1601 10.8009 12.5001 10.8009ZM8.02012 10.8009C7.36012 10.8009 6.82012 11.3399 6.82012 11.9999C6.82012 12.6599 7.36012 13.1999 8.02012 13.1999C8.68012 13.1999 9.21012 12.6599 9.21012 11.9999C9.21012 11.3399 8.68012 10.8009 8.02012 10.8009Z" fill="#009FDF"/>
</svg>
