<svg width="25" height="24" viewBox="0 0 25 24" fill="none" xmlns="http://www.w3.org/2000/svg">
<path d="M5.33331 9C5.33331 5.70017 5.33331 4.05025 6.35844 3.02513C7.38356 2 9.03348 2 12.3333 2C15.6331 2 17.283 2 18.3082 3.02513C19.3333 4.05025 19.3333 5.70017 19.3333 9V15C19.3333 18.2998 19.3333 19.9497 18.3082 20.9749C17.283 22 15.6331 22 12.3333 22C9.03348 22 7.38356 22 6.35844 20.9749C5.33331 19.9497 5.33331 18.2998 5.33331 15V9Z" stroke="#009FDF" stroke-width="1.5" stroke-linecap="round"/>
<path d="M11.3333 19H13.3333" stroke="#009FDF" stroke-width="1.5" stroke-linecap="round" stroke-linejoin="round"/>
<path d="M9.33331 2L9.42231 2.53402C9.61519 3.69129 9.71163 4.26993 10.1085 4.62204C10.5225 4.98934 11.1094 5 12.3333 5C13.5572 5 14.1441 4.98934 14.5581 4.62204C14.955 4.26993 15.0514 3.69129 15.2443 2.53402L15.3333 2" stroke="#009FDF" stroke-width="1.5" stroke-linejoin="round"/>
</svg>
