<svg width="25" height="24" viewBox="0 0 25 24" fill="none" xmlns="http://www.w3.org/2000/svg">
<path d="M8.33325 6C11.647 6 14.3333 5.10457 14.3333 4C14.3333 2.89543 11.647 2 8.33325 2C5.01954 2 2.33325 2.89543 2.33325 4C2.33325 5.10457 5.01954 6 8.33325 6Z" stroke="#009FDF" stroke-width="1.5"/>
<path d="M15.8333 9C12.2435 9 9.33325 11.9101 9.33325 15.5C9.33325 19.0898 12.2435 22 15.8333 22C19.4231 22 22.3333 19.0899 22.3333 15.5C22.3333 11.9101 19.4231 9 15.8333 9Z" stroke="#009FDF" stroke-width="1.5" stroke-linecap="round" stroke-linejoin="round"/>
<path d="M15.8333 19C15.938 19 16.0353 18.9505 16.23 18.8516L17.7947 18.0564C18.4871 17.7045 18.8333 17.5286 18.8333 17.25V13.75M15.8333 19C15.7286 19 15.6313 18.9505 15.4366 18.8516L13.8719 18.0564C13.1795 17.7045 12.8333 17.5286 12.8333 17.25V13.75M15.8333 19V15.5M18.8333 13.75C18.8333 13.4714 18.4871 13.2955 17.7947 12.9436L16.23 12.1484C16.0353 12.0495 15.938 12 15.8333 12C15.7286 12 15.6313 12.0495 15.4366 12.1484L13.8719 12.9436C13.1795 13.2955 12.8333 13.4714 12.8333 13.75M18.8333 13.75C18.8333 14.0286 18.4871 14.2045 17.7947 14.5564L16.23 15.3516C16.0353 15.4505 15.938 15.5 15.8333 15.5M12.8333 13.75C12.8333 14.0286 13.1795 14.2045 13.8719 14.5564L15.4366 15.3516C15.6313 15.4505 15.7286 15.5 15.8333 15.5" stroke="#009FDF" stroke-width="1.5" stroke-linejoin="round"/>
<path d="M2.33325 4V8.02171V12.0434C2.33325 12.7473 3.51159 13.6328 6.46306 14M2.44051 8.54768C3.64486 9.60965 5.79206 10.0602 8.08684 10.0602M14.3217 4.12134V6.13597" stroke="#009FDF" stroke-width="1.5" stroke-linecap="round" stroke-linejoin="round"/>
</svg>
