<svg width="96" height="36" viewBox="0 0 96 36" fill="none" xmlns="http://www.w3.org/2000/svg">
<g clip-path="url(#clip0_3_545)">
<path d="M11.867 25.0043C11.5405 25.8652 11.2791 26.5891 11.239 26.6744C11.1371 26.8904 10.3864 26.8536 10.1314 26.9538C9.67958 27.5504 9.40461 28.2568 9.33655 28.9956C9.86076 29.0941 10.4037 29.0178 10.8781 28.7788C11.3885 28.4809 11.8701 28.1383 12.3169 27.7552C13.1498 26.4647 13.8975 25.1238 14.5554 23.7404C13.6927 24.2268 12.7945 24.6493 11.867 25.0043Z" fill="#009FDF"/>
<path d="M11.1428 16.1938C11.4255 15.3821 11.8722 14.634 12.4565 13.9938C11.775 14.4136 11.0225 14.7117 10.2341 14.8743C8.37092 15.2233 6.29765 14.4462 3.22424 15.9871C0.227822 17.4913 -0.224522 20.855 0.0826592 21.0428C0.360967 21.2118 0.146816 19.5441 4.02628 18.691C6.50683 18.19 8.90241 17.3496 11.142 16.1945" fill="#009FDF"/>
<path d="M42.5401 1.58712C42.7871 1.09181 42.9708 0.568755 43.0871 0.0297241C42.4389 0.0486733 41.7956 0.145932 41.1718 0.319286C40.9272 0.358416 31.2859 -1.71549 25.4968 7.94346C28.2719 7.42851 29.2664 7.59912 28.2863 7.85268C27.8163 7.97399 22.1058 9.4179 20.2226 9.90234C15.8707 11.0238 11.7258 13.1791 11.7258 17.8255C11.7258 19.9972 12.3329 20.8667 11.0577 21.8692C10.2268 22.5219 7.60252 23.1104 7.4782 23.454C7.35389 23.7976 5.33436 29.0387 5.20924 29.3016C5.08412 29.5646 4.23075 29.4644 3.91956 29.5865C3.60837 29.7086 2.73896 31.9249 2.94829 32.0862C3.58993 32.2078 4.25485 32.1137 4.83468 31.8193C5.44064 31.4647 6.00374 31.0447 6.51335 30.5671C6.96891 30.1429 8.12304 27.1283 9.20579 25.7055C9.81254 25.008 10.6626 24.5544 11.5919 24.4322C16.3616 23.1558 19.5425 19.7272 19.9659 16.4285C20.0895 15.4635 20.3108 14.7568 20.3718 15.9222C20.4112 16.6195 20.3743 17.3189 20.2619 18.0086C21.7633 17.557 24.9137 17.6329 27.3944 17.1579C28.8171 16.9514 30.1937 16.5111 31.4656 15.8556C34.1364 15.5762 34.0562 15.5809 33.429 16.549C33.0167 17.1829 32.2339 18.3318 32.0495 18.6918C31.7904 19.1974 32.0021 19.1841 31.9789 19.3883C31.954 19.6122 31.5265 20.0528 31.1817 19.8391C31.1433 19.8113 31.0996 19.7915 31.0531 19.7808C31.0066 19.7702 30.9583 19.769 30.9114 19.7773C30.5865 19.816 30.2826 19.9544 30.0436 20.1725C29.758 20.7618 30.224 22.4061 30.5111 22.2738C30.9066 22.0938 31.9596 21.5131 32.5964 21.1163C32.8603 20.952 35.795 15.6443 35.7541 15.1998C35.7068 14.7122 35.2905 13.7911 34.5069 13.6894C33.3961 13.5501 30.0476 13.1791 30.0476 13.1149C30.0476 12.9396 32.278 12.9584 34.5566 13.1721C36.7494 10.602 37.2346 6.5332 38.3262 6.41972C38.7665 6.3712 39.8741 7.53729 41.0235 8.81608C41.0698 9.1071 41.145 9.39304 41.248 9.66989C41.6335 9.91569 42.0807 10.0535 42.5409 10.0682C42.7912 10.0307 43.7737 9.22929 43.8122 8.92877C43.8394 8.7339 42.5425 1.58398 42.5425 1.58398" fill="#009FDF"/>
<path d="M39.6969 12.0083C39.3047 11.959 37.4776 11.7336 36.1799 11.5795C35.8852 12.1984 35.5465 12.7965 35.1661 13.3693C35.4769 13.5108 35.7463 13.7261 35.9497 13.9954L36.1831 13.9758C38.5427 13.7864 39.0464 13.7097 38.8435 14.1034C38.789 14.2153 38.6919 14.3601 38.5716 14.5463C38.2035 15.1122 37.5057 16.1366 37.3413 16.459C37.1095 16.909 37.2988 16.8981 37.2787 17.0797C37.2555 17.2769 36.8777 17.6713 36.5673 17.4811C36.5329 17.4569 36.4939 17.4396 36.4526 17.4302C36.4113 17.4208 36.3685 17.4195 36.3267 17.4263C36.0369 17.4613 35.7658 17.5845 35.5519 17.7785C35.2969 18.3044 35.7123 19.7734 35.9706 19.6568C36.3227 19.4956 37.2627 18.9767 37.8297 18.6237C38.8221 17.093 39.7064 15.4979 40.4764 13.8498C40.5651 13.6872 40.6253 13.5113 40.6545 13.3294C40.6275 13.0462 40.5243 12.775 40.3553 12.5432C40.1863 12.3115 39.9575 12.1275 39.692 12.0099" fill="#009FDF"/>
<path d="M31.3477 29.2234C31.3455 29.112 31.3661 29.0012 31.4083 28.8977C31.4506 28.7942 31.5136 28.7 31.5937 28.6206C31.6738 28.5412 31.7694 28.4782 31.8748 28.4354C31.9802 28.3925 32.0933 28.3707 32.2075 28.3711C32.3223 28.3705 32.4362 28.3921 32.5424 28.4347C32.6486 28.4773 32.7451 28.5401 32.8263 28.6194C32.9074 28.6987 32.9717 28.7929 33.0153 28.8966C33.0588 29.0002 33.0809 29.1113 33.0801 29.2234V29.5865C33.3262 29.1911 33.6732 28.8647 34.0872 28.6394C34.5012 28.414 34.9681 28.2973 35.4421 28.3007C37.1473 28.3007 38.1346 29.4183 38.1346 31.1236V35.0624C38.1366 35.173 38.1159 35.2829 38.0735 35.3855C38.0311 35.4881 37.968 35.5813 37.8879 35.6596C37.8078 35.7379 37.7124 35.7996 37.6074 35.8412C37.5023 35.8827 37.3897 35.9032 37.2764 35.9014C37.1623 35.9035 37.0489 35.8833 36.9429 35.842C36.8369 35.8008 36.7404 35.7392 36.6592 35.6611C36.5779 35.5829 36.5134 35.4897 36.4696 35.3869C36.4257 35.2841 36.4033 35.1738 36.4038 35.0624V31.6393C36.4038 30.4928 35.8159 29.8393 34.7853 29.8393C34.5453 29.8349 34.307 29.8805 34.0866 29.9733C33.8661 30.066 33.6685 30.2037 33.5071 30.3771C33.3456 30.5504 33.224 30.7554 33.1503 30.9784C33.0767 31.2013 33.0528 31.4371 33.0801 31.6698V35.0648C33.0801 35.289 32.9888 35.5041 32.8263 35.6627C32.6638 35.8213 32.4434 35.9104 32.2135 35.9104C31.9837 35.9104 31.7633 35.8213 31.6007 35.6627C31.4382 35.5041 31.3469 35.289 31.3469 35.0648L31.3477 29.2234Z" fill="#009FDF"/>
<path d="M29.0426 35.0507C29.0449 35.1621 29.0244 35.2728 28.9823 35.3764C28.9402 35.4799 28.8772 35.5742 28.7972 35.6537C28.7172 35.7332 28.6216 35.7962 28.5163 35.8392C28.4109 35.8821 28.2978 35.9041 28.1836 35.9037C28.0687 35.9042 27.9549 35.8825 27.8487 35.8398C27.7425 35.7971 27.646 35.7343 27.5648 35.6549C27.4837 35.5756 27.4194 35.4813 27.3759 35.3776C27.3323 35.2739 27.3102 35.1628 27.311 35.0507V34.6868C27.065 35.0826 26.7178 35.4093 26.3035 35.6347C25.8891 35.8601 25.4218 35.9766 24.9474 35.9726C23.2439 35.9726 22.2558 34.8558 22.2558 33.1552V29.214C22.2537 29.1034 22.2745 28.9935 22.3169 28.8909C22.3594 28.7883 22.4226 28.695 22.5027 28.6168C22.5829 28.5386 22.6784 28.4769 22.7836 28.4355C22.8887 28.3941 23.0014 28.3738 23.1147 28.3758C23.2289 28.3734 23.3424 28.3933 23.4485 28.4344C23.5546 28.4755 23.6513 28.5369 23.7327 28.6151C23.8141 28.6932 23.8786 28.7865 23.9225 28.8893C23.9664 28.9922 23.9887 29.1026 23.9882 29.214V32.6356C23.9882 33.7797 24.576 34.4355 25.6067 34.4355C25.8468 34.4399 26.0851 34.3941 26.3055 34.3012C26.526 34.2083 26.7236 34.0705 26.885 33.897C27.0464 33.7235 27.1679 33.5183 27.2414 33.2952C27.3149 33.0721 27.3386 32.8362 27.311 32.6035V29.2093C27.311 28.9851 27.4023 28.7701 27.5647 28.6116C27.7272 28.4531 27.9475 28.3641 28.1772 28.3641C28.4069 28.3641 28.6273 28.4531 28.7897 28.6116C28.9521 28.7701 29.0434 28.9851 29.0434 29.2093L29.0426 35.0507Z" fill="#009FDF"/>
<path d="M40.4693 29.2242C40.467 29.1127 40.4876 29.0019 40.5299 28.8983C40.5722 28.7948 40.6353 28.7005 40.7155 28.6211C40.7957 28.5417 40.8914 28.4787 40.9969 28.4359C41.1024 28.3931 41.2156 28.3714 41.3299 28.3719C41.4447 28.3713 41.5586 28.3929 41.6649 28.4355C41.7711 28.4781 41.8676 28.5409 41.9489 28.6201C42.0301 28.6994 42.0945 28.7936 42.1381 28.8973C42.1818 29.0009 42.2039 29.1121 42.2033 29.2242V35.0616C42.1964 35.2814 42.1021 35.49 41.9404 35.6431C41.7786 35.7963 41.5621 35.8819 41.3367 35.8819C41.1113 35.8819 40.8948 35.7963 40.733 35.6431C40.5712 35.49 40.4769 35.2814 40.4701 35.0616L40.4693 29.2242Z" fill="#009FDF"/>
<path d="M44.1923 32.1848V32.1543C44.2179 31.13 44.6519 30.1559 45.402 29.439C46.1522 28.7221 47.1593 28.319 48.2093 28.3153C49.2593 28.3117 50.2693 28.7077 51.0247 29.4194C51.7801 30.131 52.2212 31.102 52.2544 32.1261V32.1543C52.2526 32.6678 52.1458 33.1758 51.9401 33.6485C51.7344 34.1211 51.434 34.549 51.0566 34.9068C50.6792 35.2647 50.2323 35.5454 49.7422 35.7324C49.252 35.9195 48.7286 36.0091 48.2025 35.9961C47.6806 36.009 47.1615 35.9199 46.6755 35.734C46.1896 35.5481 45.7467 35.2691 45.3729 34.9136C44.9992 34.558 44.7022 34.133 44.4994 33.6637C44.2967 33.1944 44.1922 32.6902 44.1923 32.1809M50.5228 32.1809V32.1543C50.5359 31.8483 50.4858 31.5429 50.3753 31.2562C50.2649 30.9696 50.0964 30.7075 49.8799 30.4858C49.6634 30.2641 49.4034 30.0871 49.1154 29.9656C48.8273 29.844 48.5171 29.7803 48.2033 29.7783C47.8927 29.7766 47.5851 29.8372 47.2995 29.9563C47.0139 30.0753 46.7563 30.2503 46.5428 30.4704C46.3293 30.6905 46.1644 30.951 46.0582 31.2358C45.952 31.5206 45.9068 31.8236 45.9255 32.1261V32.1543C45.9134 32.4582 45.964 32.7614 46.0742 33.0459C46.1844 33.3304 46.3519 33.5905 46.5669 33.8107C46.7819 34.0309 47.04 34.2068 47.3259 34.328C47.6118 34.4492 47.9197 34.5132 48.2313 34.5162C48.5416 34.5196 48.8492 34.4609 49.1352 34.3437C49.4213 34.2265 49.6796 34.0533 49.8943 33.8347C50.109 33.6162 50.2755 33.3571 50.3834 33.0733C50.4914 32.7895 50.5386 32.4871 50.522 32.1848L50.5228 32.1809Z" fill="#009FDF"/>
<path d="M54.1585 29.2234C54.1563 29.112 54.1769 29.0014 54.2191 28.8979C54.2612 28.7945 54.3242 28.7003 54.4042 28.6209C54.4842 28.5415 54.5797 28.4785 54.685 28.4356C54.7903 28.3927 54.9034 28.3708 55.0175 28.3711C55.1324 28.3704 55.2463 28.3919 55.3526 28.4345C55.4589 28.4771 55.5555 28.5398 55.6368 28.6191C55.718 28.6984 55.7823 28.7926 55.826 28.8964C55.8696 29.0001 55.8917 29.1113 55.8909 29.2234V29.5865C56.1369 29.191 56.4839 28.8647 56.8979 28.6393C57.312 28.4139 57.7789 28.2972 58.2529 28.3007C59.9589 28.3007 60.9462 29.4183 60.9462 31.1236V35.0624C60.9481 35.1731 60.9272 35.2831 60.8847 35.3857C60.8422 35.4884 60.7789 35.5816 60.6987 35.6599C60.6185 35.7382 60.5229 35.7999 60.4177 35.8414C60.3125 35.8829 60.1998 35.9033 60.0864 35.9014C59.9722 35.9036 59.8587 35.8835 59.7526 35.8422C59.6466 35.801 59.55 35.7395 59.4686 35.6614C59.3872 35.5832 59.3227 35.49 59.2788 35.3871C59.2349 35.2842 59.2125 35.1738 59.2129 35.0624V31.6393C59.2129 30.4928 58.6267 29.8393 57.596 29.8393C57.356 29.8349 57.1178 29.8805 56.8973 29.9733C56.6769 30.066 56.4793 30.2037 56.3178 30.3771C56.1564 30.5504 56.0348 30.7554 55.9611 30.9784C55.8875 31.2013 55.8636 31.4371 55.8909 31.6698V35.0648C55.8909 35.289 55.7996 35.5041 55.6371 35.6627C55.4746 35.8213 55.2542 35.9104 55.0243 35.9104C54.7945 35.9104 54.5741 35.8213 54.4115 35.6627C54.249 35.5041 54.1577 35.289 54.1577 35.0648L54.1585 29.2234Z" fill="#009FDF"/>
<path d="M63.6137 26.8591C63.6105 26.8136 63.6172 26.768 63.6332 26.7251C63.6492 26.6823 63.6741 26.6432 63.7065 26.6103C63.7389 26.5774 63.778 26.5515 63.8213 26.5343C63.8645 26.517 63.911 26.5088 63.9578 26.5101C64.0052 26.5085 64.0523 26.5165 64.0964 26.5335C64.1406 26.5505 64.1806 26.5762 64.2142 26.6089C64.2477 26.6416 64.274 26.6807 64.2914 26.7238C64.3088 26.7668 64.317 26.8129 64.3155 26.8591V30.2009C64.6159 29.6771 65.0514 29.2391 65.5789 28.9302C66.1063 28.6213 66.7073 28.4523 67.3223 28.44C67.8066 28.4495 68.284 28.5536 68.7264 28.7461C69.1688 28.9386 69.5671 29.2156 69.898 29.5608C70.2289 29.9059 70.4856 30.3123 70.6529 30.7559C70.8202 31.1994 70.8947 31.6712 70.8721 32.1433V32.1723C70.895 32.6458 70.8209 33.119 70.654 33.5643C70.4872 34.0095 70.2309 34.4178 69.9004 34.7652C69.5698 35.1126 69.1715 35.3922 68.7288 35.5876C68.2861 35.7829 67.808 35.8902 67.3223 35.903C66.7126 35.898 66.1147 35.7383 65.5874 35.4394C65.0602 35.1405 64.6218 34.7128 64.3155 34.1984V35.4443C64.3175 35.4895 64.3102 35.5346 64.2938 35.577C64.2775 35.6193 64.2525 35.6579 64.2204 35.6906C64.1883 35.7232 64.1498 35.7491 64.1071 35.7668C64.0644 35.7845 64.0186 35.7935 63.9722 35.7934C63.925 35.7939 63.8782 35.7852 63.8346 35.7679C63.7909 35.7505 63.7511 35.7249 63.7178 35.6923C63.6844 35.6598 63.658 35.6212 63.6401 35.5786C63.6222 35.536 63.6132 35.4904 63.6137 35.4443V26.8591ZM70.1142 32.1996V32.173C70.143 31.7856 70.0908 31.3966 69.9609 31.0295C69.8309 30.6623 69.6259 30.3248 69.3582 30.0373C69.0905 29.7499 68.7658 29.5185 68.4037 29.3572C68.0416 29.1958 67.6497 29.108 67.2517 29.099C66.8502 29.1089 66.4545 29.1959 66.0874 29.3551C65.7203 29.5143 65.389 29.7425 65.1123 30.0266C64.8356 30.3108 64.619 30.6454 64.4748 31.0112C64.3307 31.3771 64.2618 31.7671 64.2721 32.159V32.1856C64.2603 32.5778 64.3281 32.9685 64.4717 33.335C64.6153 33.7016 64.8319 34.0368 65.1088 34.3213C65.3858 34.6058 65.7178 34.834 66.0855 34.9928C66.4533 35.1515 66.8497 35.2377 67.2517 35.2463C67.6511 35.2494 68.0466 35.1706 68.4128 35.0152C68.779 34.8597 69.1077 34.6311 69.3777 34.3439C69.6477 34.0568 69.853 33.7176 69.9802 33.3483C70.1075 32.9789 70.1539 32.5876 70.1166 32.1996H70.1142Z" fill="#009FDF"/>
<path d="M72.3768 33.6678V33.6404C72.3768 32.1589 73.6801 31.32 75.5705 31.32C76.3881 31.3126 77.2027 31.4161 77.9911 31.6276V31.32C77.9911 29.8808 77.088 29.1404 75.5849 29.1404C74.8642 29.1418 74.1534 29.304 73.5069 29.6147C73.4587 29.6402 73.4052 29.6543 73.3505 29.6561C73.2639 29.6534 73.1815 29.6187 73.1202 29.559C73.0588 29.4992 73.023 29.419 73.02 29.3345C73.0208 29.2702 73.0401 29.2074 73.0755 29.1532C73.1109 29.099 73.1611 29.0556 73.2205 29.0277C73.9726 28.6796 74.7943 28.4981 75.6267 28.4963C76.0449 28.471 76.4641 28.5272 76.8598 28.6616C77.2556 28.7959 77.6199 29.0058 77.9317 29.2789C78.1896 29.5476 78.3886 29.8647 78.5166 30.2109C78.6445 30.5571 78.6988 30.9252 78.676 31.2926V35.4404C78.6783 35.4858 78.6711 35.5312 78.6548 35.5738C78.6385 35.6164 78.6136 35.6553 78.5814 35.6882C78.5493 35.7211 78.5107 35.7473 78.4679 35.7652C78.425 35.7831 78.3789 35.7924 78.3324 35.7924C78.2858 35.7924 78.2397 35.7831 78.1969 35.7652C78.154 35.7473 78.1154 35.7211 78.0832 35.6882C78.0511 35.6553 78.0262 35.6164 78.0099 35.5738C77.9936 35.5312 77.9864 35.4858 77.9887 35.4404V34.5451C77.6726 34.9769 77.2528 35.3263 76.766 35.5628C76.2792 35.7993 75.7404 35.9155 75.1968 35.9014C73.8333 35.9014 72.3744 35.1469 72.3744 33.6655M78.0031 33.0629V32.2536C77.1948 32.0432 76.3621 31.9354 75.5256 31.9328C73.9785 31.9328 73.1195 32.6019 73.1195 33.595V33.6224C73.1195 34.657 74.1212 35.2581 75.2377 35.2581C76.7311 35.2581 78.0055 34.3659 78.0055 33.0668L78.0031 33.0629Z" fill="#009FDF"/>
<path d="M81.1375 28.9017C81.1352 28.8554 81.1426 28.8091 81.1592 28.7656C81.1758 28.7221 81.2013 28.6824 81.2341 28.6488C81.2669 28.6153 81.3064 28.5885 81.3501 28.5703C81.3938 28.552 81.4408 28.5426 81.4884 28.5426C81.5359 28.5426 81.583 28.552 81.6267 28.5703C81.6704 28.5885 81.7098 28.6153 81.7426 28.6488C81.7754 28.6824 81.8009 28.7221 81.8175 28.7656C81.8341 28.8091 81.8415 28.8554 81.8393 28.9017V29.9363C82.0892 29.47 82.4692 29.0821 82.9354 28.8174C83.4016 28.5528 83.9349 28.4222 84.4739 28.4408C84.8706 28.4199 85.2673 28.4822 85.6373 28.6234C86.0073 28.7646 86.342 28.9815 86.6188 29.2595C86.8957 29.5374 87.1084 29.87 87.2426 30.2349C87.3767 30.5998 87.4292 30.9885 87.3966 31.3748V35.4443C87.3996 35.4898 87.3929 35.5355 87.3768 35.5783C87.3607 35.6211 87.3356 35.6601 87.3031 35.6929C87.2706 35.7257 87.2315 35.7515 87.1882 35.7687C87.1449 35.7859 87.0984 35.794 87.0517 35.7926C87.0043 35.7944 86.9571 35.7865 86.9129 35.7697C86.8687 35.7528 86.8286 35.7272 86.7951 35.6945C86.7615 35.6619 86.7352 35.6228 86.7178 35.5797C86.7004 35.5367 86.6923 35.4906 86.694 35.4443V31.5039C86.7322 31.1899 86.6999 30.8716 86.5993 30.5711C86.4986 30.2706 86.3321 29.9951 86.1113 29.7637C85.8904 29.5324 85.6206 29.3508 85.3205 29.2315C85.0205 29.1122 84.6973 29.0582 84.3737 29.0731C84.0337 29.0687 83.6963 29.1319 83.3822 29.259C83.068 29.386 82.7837 29.5741 82.5465 29.8119C82.3093 30.0497 82.1243 30.3321 82.0027 30.642C81.8811 30.9519 81.8255 31.2827 81.8393 31.6143V35.4443C81.8425 35.4898 81.836 35.5354 81.8201 35.5782C81.8042 35.621 81.7792 35.6601 81.7469 35.6929C81.7145 35.7257 81.6755 35.7515 81.6323 35.7687C81.5891 35.7859 81.5426 35.794 81.496 35.7926C81.4486 35.7942 81.4014 35.7863 81.3572 35.7694C81.3131 35.7525 81.273 35.727 81.2394 35.6943C81.2057 35.6617 81.1793 35.6226 81.1618 35.5796C81.1443 35.5366 81.136 35.4906 81.1375 35.4443V28.9017Z" fill="#009FDF"/>
<path d="M90.0721 26.8591C90.0701 26.8139 90.0774 26.7687 90.0938 26.7263C90.1102 26.6839 90.1352 26.6452 90.1674 26.6126C90.1996 26.58 90.2382 26.554 90.281 26.5364C90.3238 26.5188 90.3698 26.5098 90.4162 26.5101C90.4634 26.5096 90.5102 26.5182 90.5539 26.5356C90.5975 26.5529 90.6372 26.5786 90.6706 26.6111C90.704 26.6436 90.7304 26.6823 90.7483 26.7249C90.7662 26.7675 90.7751 26.8131 90.7747 26.8591V33.1748L95.2565 28.649C95.287 28.6167 95.3243 28.5912 95.3658 28.5743C95.4073 28.5574 95.4521 28.5495 95.4971 28.5511C95.5408 28.5499 95.5843 28.5575 95.6249 28.5733C95.6655 28.5891 95.7023 28.6128 95.7332 28.643C95.7641 28.6732 95.7883 28.7092 95.8044 28.7488C95.8204 28.7885 95.8281 28.8309 95.8267 28.8736C95.8267 28.9187 95.8162 28.9633 95.796 29.0039C95.7759 29.0446 95.7467 29.0803 95.7105 29.1084L93.0373 31.7661L95.8989 35.2158C95.9318 35.2493 95.9576 35.2888 95.9748 35.3321C95.992 35.3753 96.0003 35.4215 95.9992 35.4678C96.0003 35.5114 95.9921 35.5547 95.9751 35.5949C95.958 35.6352 95.9326 35.6715 95.9004 35.7017C95.8682 35.7318 95.8298 35.755 95.7879 35.7699C95.7459 35.7847 95.7013 35.7909 95.6567 35.7879C95.5971 35.7887 95.5383 35.7748 95.4857 35.7474C95.4331 35.7201 95.3885 35.6801 95.356 35.6314L92.5488 32.2498L90.7739 33.9965V35.4444C90.7771 35.4899 90.7704 35.5355 90.7544 35.5784C90.7384 35.6212 90.7134 35.6603 90.681 35.6932C90.6486 35.7261 90.6096 35.7519 90.5663 35.7692C90.523 35.7865 90.4765 35.7947 90.4298 35.7934C90.3824 35.7949 90.3352 35.7869 90.2911 35.7699C90.247 35.7529 90.2069 35.7273 90.1734 35.6946C90.1399 35.6618 90.1136 35.6228 90.0962 35.5797C90.0787 35.5367 90.0706 35.4906 90.0721 35.4444V26.8591Z" fill="#009FDF"/>
</g>
<defs>
<clipPath id="clip0_3_545">
<rect width="96" height="36" fill="white"/>
</clipPath>
</defs>
</svg>
