<svg width="16" height="16" viewBox="0 0 16 16" fill="none" xmlns="http://www.w3.org/2000/svg">
<path d="M14.3626 7.36331C14.5653 7.64751 14.6666 7.78965 14.6666 7.99998C14.6666 8.21031 14.5653 8.35245 14.3626 8.63665C13.4519 9.91371 11.1261 12.6666 7.99998 12.6666C4.87383 12.6666 2.54805 9.91371 1.63734 8.63665C1.43465 8.35245 1.33331 8.21031 1.33331 7.99998C1.33331 7.78965 1.43465 7.64751 1.63734 7.36331C2.54805 6.08627 4.87383 3.33331 7.99998 3.33331C11.1261 3.33331 13.4519 6.08627 14.3626 7.36331Z" stroke="white" stroke-width="1.5"/>
<path d="M10 8C10 6.8954 9.1046 6 8 6C6.8954 6 6 6.8954 6 8C6 9.1046 6.8954 10 8 10C9.1046 10 10 9.1046 10 8Z" stroke="white" stroke-width="1.5"/>
</svg>
